<svg id="svg" version="1.1" xmlns="http://www.w3.org/2000/svg" xmlns:xlink="http://www.w3.org/1999/xlink" width="400" height="400" viewBox="0, 0, 400,400"><g id="svgg"><path id="path0" d="M162.123 52.692 C 161.489 52.817,160.327 53.476,159.487 54.185 C 156.660 56.574,130.309 83.254,129.816 84.226 C 128.287 87.246,128.381 80.412,128.377 188.596 L 128.372 289.285 129.112 290.921 C 130.126 293.163,157.956 320.914,160.582 322.301 L 162.249 323.182 202.394 323.163 L 242.540 323.144 243.828 322.293 C 246.249 320.695,274.319 292.870,275.233 291.163 C 275.794 290.115,275.814 288.413,275.814 242.469 L 275.814 194.860 274.756 193.115 C 272.684 189.695,246.697 164.202,244.670 163.600 C 243.171 163.155,239.475 163.100,210.719 163.094 C 179.377 163.087,178.427 163.070,177.674 162.492 L 176.899 161.896 176.804 134.204 C 176.696 102.981,176.721 102.301,177.992 101.030 L 178.867 100.155 202.932 100.155 C 222.389 100.155,227.188 100.235,227.995 100.572 C 229.612 101.248,229.767 102.421,229.767 113.958 C 229.767 123.650,229.791 124.055,230.394 124.657 C 231.313 125.577,274.337 125.486,275.260 124.562 C 275.780 124.043,275.814 122.828,275.814 104.873 L 275.814 85.736 274.940 84.250 C 274.007 82.662,247.242 55.842,244.496 53.743 L 242.946 52.558 203.101 52.513 C 181.186 52.489,162.746 52.569,162.123 52.692 M228.438 210.193 C 229.708 210.267,229.746 211.209,229.745 242.636 C 229.744 274.299,229.679 275.949,228.407 276.679 C 227.433 277.237,179.050 277.220,178.073 276.661 C 176.749 275.905,176.726 275.278,176.814 242.626 L 176.899 211.419 177.679 210.748 L 178.459 210.078 203.105 210.115 C 216.661 210.136,228.061 210.171,228.438 210.193 " stroke="none" fill="#060606" fill-rule="evenodd"></path><path id="path1" d="M0.000 200.000 L 0.000 400.000 200.000 400.000 L 400.000 400.000 400.000 200.000 L 400.000 0.000 200.000 0.000 L 0.000 0.000 0.000 200.000 M243.876 44.341 C 243.981 44.512,244.501 44.651,245.030 44.651 C 246.074 44.651,248.372 45.545,248.372 45.951 C 248.372 46.089,248.587 46.202,248.850 46.202 C 249.298 46.202,249.611 46.400,250.686 47.364 C 250.924 47.578,251.346 47.752,251.624 47.752 C 251.902 47.752,252.043 47.891,251.938 48.062 C 251.833 48.233,251.887 48.372,252.060 48.372 C 252.232 48.372,253.071 49.070,253.924 49.922 C 254.777 50.775,255.621 51.473,255.799 51.473 C 255.978 51.473,256.124 51.622,256.124 51.805 C 256.124 52.156,256.884 53.023,257.191 53.023 C 257.524 53.023,278.760 74.373,278.760 74.708 C 278.760 74.890,278.909 75.039,279.092 75.039 C 279.509 75.039,280.310 75.823,280.310 76.231 C 280.310 76.400,280.420 76.584,280.555 76.641 C 280.911 76.791,282.774 79.914,282.607 80.081 C 282.529 80.158,282.678 80.398,282.938 80.614 C 283.198 80.830,283.411 81.338,283.411 81.743 C 283.411 82.149,283.550 82.481,283.721 82.481 C 283.891 82.481,284.031 82.865,284.031 83.335 C 284.031 83.805,284.198 84.678,284.403 85.273 C 284.654 86.005,284.853 90.833,285.016 100.155 C 285.149 107.744,285.339 115.733,285.437 117.907 C 285.559 120.592,285.512 121.860,285.289 121.860 C 285.109 121.860,284.961 122.295,284.961 122.827 C 284.961 123.876,284.020 126.913,283.643 127.080 C 283.516 127.137,283.411 127.381,283.411 127.623 C 283.411 127.864,283.281 128.062,283.122 128.062 C 282.963 128.062,282.747 128.330,282.643 128.658 C 282.386 129.469,280.616 131.162,280.019 131.168 C 279.593 131.172,279.591 131.208,280.000 131.473 C 280.362 131.707,280.277 131.774,279.612 131.778 C 279.143 131.781,278.759 131.888,278.759 132.016 C 278.757 132.370,276.314 133.250,274.574 133.523 C 270.393 134.178,229.278 133.714,228.831 133.006 C 228.742 132.866,228.254 132.676,227.748 132.584 C 227.241 132.492,226.779 132.274,226.721 132.100 C 226.663 131.926,226.417 131.783,226.176 131.783 C 225.934 131.783,225.736 131.675,225.736 131.543 C 225.736 131.412,225.273 131.054,224.707 130.749 C 224.141 130.444,223.419 129.750,223.102 129.206 C 222.786 128.662,222.447 128.147,222.349 128.062 C 221.894 127.667,221.085 125.465,221.085 124.622 C 221.085 124.076,220.956 123.764,220.775 123.876 C 220.573 124.001,220.465 122.207,220.465 118.722 C 220.465 115.580,220.320 112.921,220.112 112.270 C 219.544 110.490,219.147 109.767,218.733 109.767 C 218.520 109.767,218.288 109.593,218.217 109.380 C 218.116 109.077,214.838 108.992,203.218 108.992 L 188.348 108.992 187.352 110.011 C 186.684 110.694,186.357 111.332,186.357 111.949 C 186.357 112.454,186.217 112.868,186.047 112.868 C 185.843 112.868,185.736 119.477,185.736 132.075 C 185.736 144.545,185.845 151.348,186.047 151.473 C 186.217 151.578,186.357 151.889,186.357 152.164 C 186.357 152.918,187.292 153.798,188.092 153.798 C 188.482 153.798,188.887 153.938,188.992 154.109 C 189.118 154.311,198.609 154.419,216.457 154.419 C 244.776 154.419,245.172 154.434,248.217 155.669 C 250.768 156.704,251.473 157.050,251.473 157.269 C 251.473 157.407,251.618 157.519,251.796 157.519 C 252.100 157.519,252.451 157.762,253.477 158.682 C 253.715 158.895,254.002 159.070,254.115 159.070 C 254.386 159.070,278.760 183.479,278.760 183.750 C 278.760 183.864,279.258 184.428,279.867 185.002 C 280.476 185.577,280.860 186.049,280.720 186.051 C 280.580 186.054,280.624 186.159,280.817 186.284 C 281.444 186.689,283.409 190.211,283.410 190.930 C 283.410 191.314,283.536 191.628,283.688 191.628 C 283.841 191.628,284.045 192.151,284.141 192.791 C 284.238 193.430,284.450 194.791,284.613 195.814 C 284.983 198.138,285.016 286.276,284.648 288.682 C 284.111 292.197,283.966 292.876,283.692 293.163 C 283.537 293.325,283.411 293.770,283.411 294.152 C 283.411 294.534,283.272 294.933,283.102 295.038 C 282.932 295.143,282.548 295.758,282.249 296.404 C 281.645 297.710,280.480 299.167,277.597 302.224 C 276.531 303.354,275.659 304.406,275.659 304.561 C 275.659 304.716,275.519 304.757,275.349 304.651 C 275.178 304.546,275.039 304.620,275.039 304.816 C 275.039 305.242,269.531 310.698,269.101 310.698 C 268.936 310.698,268.887 310.837,268.992 311.008 C 269.098 311.178,269.026 311.318,268.834 311.318 C 268.641 311.318,266.121 313.688,263.234 316.584 C 260.347 319.481,257.984 321.762,257.984 321.653 C 257.984 321.544,257.705 321.777,257.364 322.171 C 257.023 322.564,256.744 323.012,256.744 323.167 C 256.744 323.321,256.630 323.377,256.491 323.291 C 256.351 323.205,256.037 323.424,255.793 323.779 C 255.549 324.134,255.170 324.580,254.950 324.770 C 254.731 324.961,254.358 325.291,254.120 325.504 C 253.882 325.717,253.599 325.891,253.490 325.891 C 253.381 325.891,252.831 326.380,252.268 326.977 C 251.705 327.574,251.151 328.062,251.036 328.062 C 250.836 328.062,250.425 328.367,249.469 329.225 C 249.231 329.438,248.759 329.612,248.420 329.612 C 248.081 329.612,247.757 329.717,247.700 329.845 C 247.506 330.281,245.252 331.163,244.331 331.163 C 243.825 331.163,243.411 331.302,243.411 331.473 C 243.411 331.678,229.509 331.783,202.326 331.783 C 169.667 331.783,161.239 331.703,161.236 331.395 C 161.232 331.137,161.131 331.163,160.930 331.473 C 160.730 331.783,160.628 331.809,160.625 331.550 C 160.622 331.337,160.306 331.162,159.922 331.161 C 159.539 331.160,158.825 330.951,158.337 330.696 C 157.848 330.441,157.177 330.233,156.845 330.233 C 156.514 330.233,156.329 330.093,156.434 329.922 C 156.540 329.752,156.338 329.612,155.987 329.612 C 155.636 329.612,155.349 329.465,155.349 329.284 C 155.349 329.103,155.209 329.042,155.039 329.147 C 154.868 329.253,154.729 329.191,154.729 329.011 C 154.729 328.830,154.519 328.682,154.264 328.682 C 154.008 328.682,153.798 328.543,153.798 328.372 C 153.798 328.202,153.597 328.062,153.351 328.062 C 153.105 328.062,152.709 327.784,152.470 327.444 C 152.232 327.104,151.953 326.910,151.849 327.014 C 151.577 327.286,123.657 299.235,123.101 298.132 C 122.845 297.625,122.461 297.025,122.248 296.800 C 122.035 296.574,121.860 296.190,121.860 295.947 C 121.860 295.703,121.721 295.504,121.550 295.504 C 121.380 295.504,121.240 295.155,121.240 294.729 C 121.240 294.302,121.124 293.953,120.982 293.953 C 119.835 293.953,119.113 89.779,120.244 85.116 C 120.926 82.308,122.124 79.583,123.256 78.271 C 124.568 76.751,124.961 76.254,124.961 76.120 C 124.961 76.034,125.927 75.001,127.107 73.823 C 128.287 72.645,129.171 71.600,129.071 71.500 C 128.971 71.400,129.045 71.318,129.237 71.318 C 129.670 71.318,137.984 63.035,137.984 62.603 C 137.984 62.430,138.089 62.352,138.217 62.430 C 138.345 62.507,138.630 62.376,138.849 62.138 C 139.069 61.900,139.185 61.705,139.107 61.705 C 139.029 61.705,139.593 61.112,140.360 60.388 C 141.980 58.855,142.132 58.698,142.951 57.704 C 143.289 57.295,143.566 57.056,143.566 57.174 C 143.566 57.292,143.761 57.209,143.998 56.989 C 144.236 56.769,144.368 56.484,144.290 56.357 C 144.213 56.229,144.289 56.124,144.461 56.124 C 144.868 56.124,147.907 53.034,147.907 52.619 C 147.907 52.444,147.989 52.382,148.089 52.482 C 148.189 52.582,149.235 51.698,150.412 50.518 C 151.590 49.338,152.683 48.372,152.840 48.372 C 152.998 48.372,153.173 48.262,153.230 48.127 C 153.435 47.640,155.575 46.202,156.094 46.202 C 156.386 46.202,156.540 46.062,156.434 45.891 C 156.329 45.721,156.390 45.581,156.571 45.581 C 157.245 45.581,157.379 45.542,157.984 45.167 C 158.326 44.956,159.093 44.742,159.690 44.691 C 160.287 44.641,160.908 44.471,161.070 44.315 C 161.489 43.910,243.626 43.936,243.876 44.341 M159.736 47.131 C 156.521 48.287,154.895 49.708,141.477 63.077 C 124.557 79.935,123.645 81.022,122.715 85.440 C 122.006 88.803,122.161 289.481,122.873 292.061 C 123.738 295.189,125.261 296.944,138.967 310.595 C 155.562 327.124,156.517 327.888,161.550 328.673 C 164.312 329.104,240.045 329.102,242.791 328.671 C 247.156 327.986,248.341 327.083,261.240 314.612 C 278.126 298.287,279.509 296.741,281.160 292.351 L 282.016 290.078 282.016 242.140 C 282.016 207.144,281.921 194.001,281.665 193.458 C 281.472 193.048,281.058 192.085,280.745 191.318 C 279.675 188.693,277.704 186.498,264.983 173.762 C 251.937 160.701,250.638 159.558,247.337 158.239 C 244.397 157.064,239.963 156.905,210.419 156.919 C 191.432 156.928,183.686 156.833,183.442 156.590 C 182.578 155.726,182.986 109.163,183.879 106.814 L 184.172 106.042 203.327 106.122 L 222.481 106.202 222.675 113.953 C 222.996 126.707,224.424 129.598,230.867 130.529 C 233.796 130.952,272.082 130.950,274.693 130.527 C 280.327 129.613,283.167 124.965,282.642 117.519 C 282.527 115.899,282.331 107.946,282.205 99.845 L 281.977 85.116 281.050 82.936 C 279.553 79.416,278.471 78.109,269.796 69.346 C 252.978 52.359,248.332 48.253,244.617 47.097 C 241.657 46.176,162.302 46.208,159.736 47.131 M243.340 52.754 C 244.885 53.502,247.347 55.836,263.124 71.518 C 270.146 78.498,274.647 83.213,275.217 84.186 L 276.124 85.736 276.211 104.751 L 276.297 123.765 275.325 124.673 L 274.353 125.581 252.698 125.581 L 231.042 125.581 230.232 124.884 L 229.422 124.186 229.362 113.178 C 229.297 101.197,229.269 101.001,227.569 100.661 C 226.340 100.415,179.623 100.408,178.708 100.654 C 177.196 101.059,177.209 100.776,177.209 132.310 C 177.209 156.114,177.287 161.907,177.612 162.232 C 177.936 162.556,184.554 162.666,211.256 162.791 L 244.496 162.946 245.891 163.788 C 247.893 164.997,274.104 191.396,275.226 193.333 L 276.124 194.884 276.124 242.481 L 276.124 290.078 275.244 291.547 C 274.372 293.002,249.085 318.277,245.501 321.275 C 244.519 322.096,243.124 322.937,242.401 323.143 C 240.886 323.575,241.769 323.567,205.426 323.464 C 190.248 323.421,175.093 323.481,171.749 323.597 C 165.501 323.814,162.776 323.566,160.310 322.560 C 158.505 321.822,128.812 291.911,128.566 290.581 C 128.179 288.490,128.345 86.992,128.735 85.874 C 129.126 84.753,130.264 82.956,131.106 82.133 C 131.393 81.852,136.116 77.106,141.601 71.586 C 159.644 53.429,160.090 53.013,162.152 52.387 C 162.589 52.255,180.727 52.134,202.460 52.120 L 241.975 52.093 243.340 52.754 M177.800 210.885 C 177.185 211.565,176.835 273.245,177.434 275.373 C 177.868 276.912,177.650 276.899,203.256 276.899 C 228.862 276.899,228.644 276.912,229.077 275.373 C 229.370 274.334,229.372 211.488,229.079 210.775 C 228.870 210.265,227.363 210.233,203.624 210.233 L 178.391 210.233 177.800 210.885 M222.036 215.825 C 222.695 216.177,222.998 269.646,222.347 270.674 C 221.910 271.365,184.621 271.590,183.721 270.908 C 182.760 270.179,182.742 216.646,183.703 215.944 C 184.458 215.392,221.014 215.278,222.036 215.825 M189.457 218.731 C 187.288 219.218,186.357 219.808,186.357 220.695 C 186.357 221.080,186.217 221.395,186.047 221.395 C 185.843 221.395,185.736 228.992,185.736 243.566 C 185.736 258.140,185.843 265.736,186.047 265.736 C 186.217 265.736,186.357 266.005,186.357 266.334 C 186.357 266.663,186.724 267.221,187.174 267.574 C 188.151 268.343,218.295 268.615,218.295 267.855 C 218.295 267.656,218.381 267.580,218.487 267.685 C 218.808 268.007,219.528 267.074,220.009 265.710 C 220.393 264.622,220.465 261.102,220.465 243.398 C 220.465 218.310,220.666 219.728,216.979 218.765 C 214.768 218.188,192.003 218.160,189.457 218.731 " stroke="none" fill="#fbfbfb" fill-rule="evenodd"></path><path id="path2" d="M161.070 44.315 C 160.908 44.471,160.287 44.641,159.690 44.691 C 159.093 44.742,158.326 44.956,157.984 45.167 C 157.379 45.542,157.245 45.581,156.571 45.581 C 156.390 45.581,156.329 45.721,156.434 45.891 C 156.540 46.062,156.386 46.202,156.094 46.202 C 155.575 46.202,153.435 47.640,153.230 48.127 C 153.173 48.262,152.998 48.372,152.840 48.372 C 152.683 48.372,151.590 49.338,150.412 50.518 C 149.235 51.698,148.189 52.582,148.089 52.482 C 147.989 52.382,147.907 52.444,147.907 52.619 C 147.907 53.034,144.868 56.124,144.461 56.124 C 144.289 56.124,144.213 56.229,144.290 56.357 C 144.368 56.484,144.236 56.769,143.998 56.989 C 143.761 57.209,143.566 57.292,143.566 57.174 C 143.566 57.056,143.289 57.295,142.951 57.704 C 142.132 58.698,141.980 58.855,140.360 60.388 C 139.593 61.112,139.029 61.705,139.107 61.705 C 139.185 61.705,139.069 61.900,138.849 62.138 C 138.630 62.376,138.345 62.507,138.217 62.430 C 138.089 62.352,137.984 62.430,137.984 62.603 C 137.984 63.035,129.670 71.318,129.237 71.318 C 129.045 71.318,128.971 71.400,129.071 71.500 C 129.171 71.600,128.287 72.645,127.107 73.823 C 125.927 75.001,124.961 76.034,124.961 76.120 C 124.961 76.254,124.568 76.751,123.256 78.271 C 122.124 79.583,120.926 82.308,120.244 85.116 C 119.113 89.779,119.835 293.953,120.982 293.953 C 121.124 293.953,121.240 294.302,121.240 294.729 C 121.240 295.155,121.380 295.504,121.550 295.504 C 121.721 295.504,121.860 295.703,121.860 295.947 C 121.860 296.190,122.035 296.574,122.248 296.800 C 122.461 297.025,122.845 297.625,123.101 298.132 C 123.657 299.235,151.577 327.286,151.849 327.014 C 151.953 326.910,152.232 327.104,152.470 327.444 C 152.709 327.784,153.105 328.062,153.351 328.062 C 153.597 328.062,153.798 328.202,153.798 328.372 C 153.798 328.543,154.008 328.682,154.264 328.682 C 154.519 328.682,154.729 328.830,154.729 329.011 C 154.729 329.191,154.868 329.253,155.039 329.147 C 155.209 329.042,155.349 329.103,155.349 329.284 C 155.349 329.465,155.636 329.612,155.987 329.612 C 156.338 329.612,156.540 329.752,156.434 329.922 C 156.329 330.093,156.514 330.233,156.845 330.233 C 157.177 330.233,157.848 330.441,158.337 330.696 C 158.825 330.951,159.539 331.160,159.922 331.161 C 160.306 331.162,160.622 331.337,160.625 331.550 C 160.628 331.809,160.730 331.783,160.930 331.473 C 161.131 331.163,161.232 331.137,161.236 331.395 C 161.239 331.703,169.667 331.783,202.326 331.783 C 229.509 331.783,243.411 331.678,243.411 331.473 C 243.411 331.302,243.825 331.163,244.331 331.163 C 245.252 331.163,247.506 330.281,247.700 329.845 C 247.757 329.717,248.081 329.612,248.420 329.612 C 248.759 329.612,249.231 329.438,249.469 329.225 C 250.425 328.367,250.836 328.062,251.036 328.062 C 251.151 328.062,251.705 327.574,252.268 326.977 C 252.831 326.380,253.381 325.891,253.490 325.891 C 253.599 325.891,253.882 325.717,254.120 325.504 C 254.358 325.291,254.731 324.961,254.950 324.770 C 255.170 324.580,255.549 324.134,255.793 323.779 C 256.037 323.424,256.351 323.205,256.491 323.291 C 256.630 323.377,256.744 323.321,256.744 323.167 C 256.744 323.012,257.023 322.564,257.364 322.171 C 257.705 321.777,257.984 321.544,257.984 321.653 C 257.984 321.762,260.347 319.481,263.234 316.584 C 266.121 313.688,268.641 311.318,268.834 311.318 C 269.026 311.318,269.098 311.178,268.992 311.008 C 268.887 310.837,268.936 310.698,269.101 310.698 C 269.531 310.698,275.039 305.242,275.039 304.816 C 275.039 304.620,275.178 304.546,275.349 304.651 C 275.519 304.757,275.659 304.716,275.659 304.561 C 275.659 304.406,276.531 303.354,277.597 302.224 C 280.480 299.167,281.645 297.710,282.249 296.404 C 282.548 295.758,282.932 295.143,283.102 295.038 C 283.272 294.933,283.411 294.534,283.411 294.152 C 283.411 293.770,283.537 293.325,283.692 293.163 C 283.966 292.876,284.111 292.197,284.648 288.682 C 285.016 286.276,284.983 198.138,284.613 195.814 C 284.450 194.791,284.238 193.430,284.141 192.791 C 284.045 192.151,283.841 191.628,283.688 191.628 C 283.536 191.628,283.410 191.314,283.410 190.930 C 283.409 190.211,281.444 186.689,280.817 186.284 C 280.624 186.159,280.580 186.054,280.720 186.051 C 280.860 186.049,280.476 185.577,279.867 185.002 C 279.258 184.428,278.760 183.864,278.760 183.750 C 278.760 183.479,254.386 159.070,254.115 159.070 C 254.002 159.070,253.715 158.895,253.477 158.682 C 252.451 157.762,252.100 157.519,251.796 157.519 C 251.618 157.519,251.473 157.407,251.473 157.269 C 251.473 157.131,250.880 156.772,250.155 156.470 C 244.960 154.306,246.815 154.419,216.457 154.419 C 198.609 154.419,189.118 154.311,188.992 154.109 C 188.887 153.938,188.482 153.798,188.092 153.798 C 187.292 153.798,186.357 152.918,186.357 152.164 C 186.357 151.889,186.217 151.578,186.047 151.473 C 185.845 151.348,185.736 144.545,185.736 132.075 C 185.736 119.477,185.843 112.868,186.047 112.868 C 186.217 112.868,186.357 112.454,186.357 111.949 C 186.357 111.332,186.684 110.694,187.352 110.011 L 188.348 108.992 203.218 108.992 C 214.838 108.992,218.116 109.077,218.217 109.380 C 218.288 109.593,218.520 109.767,218.733 109.767 C 219.147 109.767,219.544 110.490,220.112 112.270 C 220.320 112.921,220.465 115.580,220.465 118.722 C 220.465 122.207,220.573 124.001,220.775 123.876 C 220.956 123.764,221.085 124.076,221.085 124.622 C 221.085 125.465,221.894 127.667,222.349 128.062 C 222.447 128.147,222.786 128.662,223.102 129.206 C 223.419 129.750,224.141 130.444,224.707 130.749 C 225.273 131.054,225.736 131.412,225.736 131.543 C 225.736 131.675,225.934 131.783,226.176 131.783 C 226.417 131.783,226.663 131.926,226.721 132.100 C 226.779 132.274,227.241 132.492,227.748 132.584 C 228.254 132.676,228.742 132.866,228.831 133.006 C 229.278 133.714,270.393 134.178,274.574 133.523 C 276.314 133.250,278.757 132.370,278.759 132.016 C 278.759 131.888,279.143 131.781,279.612 131.778 C 280.277 131.774,280.362 131.707,280.000 131.473 C 279.591 131.208,279.593 131.172,280.019 131.168 C 280.616 131.162,282.386 129.469,282.643 128.658 C 282.747 128.330,282.963 128.062,283.122 128.062 C 283.281 128.062,283.411 127.864,283.411 127.623 C 283.411 127.381,283.516 127.137,283.643 127.080 C 284.020 126.913,284.961 123.876,284.961 122.827 C 284.961 122.295,285.109 121.860,285.289 121.860 C 285.512 121.860,285.559 120.592,285.437 117.907 C 285.339 115.733,285.149 107.744,285.016 100.155 C 284.853 90.833,284.654 86.005,284.403 85.273 C 284.198 84.678,284.031 83.805,284.031 83.335 C 284.031 82.865,283.891 82.481,283.721 82.481 C 283.550 82.481,283.411 82.149,283.411 81.743 C 283.411 81.338,283.198 80.830,282.938 80.614 C 282.678 80.398,282.529 80.158,282.607 80.081 C 282.774 79.914,280.911 76.791,280.555 76.641 C 280.420 76.584,280.310 76.400,280.310 76.231 C 280.310 75.823,279.509 75.039,279.092 75.039 C 278.909 75.039,278.760 74.890,278.760 74.708 C 278.760 74.373,257.524 53.023,257.191 53.023 C 256.884 53.023,256.124 52.156,256.124 51.805 C 256.124 51.622,255.978 51.473,255.799 51.473 C 255.621 51.473,254.777 50.775,253.924 49.922 C 253.071 49.070,252.232 48.372,252.060 48.372 C 251.887 48.372,251.833 48.233,251.938 48.062 C 252.043 47.891,251.902 47.752,251.624 47.752 C 251.346 47.752,250.924 47.578,250.686 47.364 C 249.611 46.400,249.298 46.202,248.850 46.202 C 248.587 46.202,248.372 46.089,248.372 45.951 C 248.372 45.545,246.074 44.651,245.030 44.651 C 244.501 44.651,243.981 44.512,243.876 44.341 C 243.626 43.936,161.489 43.910,161.070 44.315 M244.008 46.040 C 244.763 46.170,246.005 46.609,246.767 47.015 C 247.530 47.420,248.328 47.752,248.540 47.752 C 248.752 47.752,249.014 47.981,249.121 48.261 C 249.229 48.542,249.393 48.695,249.486 48.602 C 249.578 48.510,250.043 48.804,250.518 49.256 C 250.994 49.708,252.034 50.671,252.831 51.395 C 253.628 52.120,254.172 52.714,254.039 52.714 C 253.907 52.715,254.233 52.981,254.765 53.305 C 255.296 53.629,258.784 56.937,262.517 60.657 C 266.249 64.377,269.407 67.390,269.535 67.354 C 269.663 67.317,269.767 67.426,269.767 67.597 C 269.767 68.001,272.154 70.388,272.558 70.388 C 272.729 70.388,272.833 70.495,272.791 70.626 C 272.748 70.757,274.074 72.230,275.736 73.898 C 277.399 75.567,278.760 77.143,278.760 77.399 C 278.760 77.656,278.909 77.774,279.091 77.662 C 279.273 77.549,279.498 77.750,279.592 78.108 C 279.686 78.467,279.886 78.760,280.036 78.760 C 280.187 78.760,280.310 78.909,280.310 79.092 C 280.310 79.275,280.491 79.605,280.712 79.826 C 280.933 80.047,281.296 80.840,281.517 81.587 C 281.739 82.334,282.031 83.162,282.165 83.427 C 282.779 84.637,283.096 90.473,283.214 102.741 C 283.302 111.907,283.449 116.131,283.687 116.369 C 283.876 116.558,284.021 117.627,284.009 118.744 C 283.994 120.166,283.908 120.589,283.721 120.155 C 283.533 119.718,283.445 120.130,283.422 121.550 C 283.403 122.669,283.192 123.911,282.946 124.341 C 282.702 124.767,282.498 125.370,282.492 125.681 C 282.486 125.992,282.306 126.437,282.093 126.670 C 281.880 126.904,281.357 127.592,280.930 128.199 C 280.504 128.807,279.842 129.388,279.460 129.491 C 279.077 129.594,278.841 129.803,278.935 129.956 C 279.029 130.108,278.879 130.233,278.601 130.233 C 278.323 130.233,277.886 130.442,277.630 130.698 C 277.374 130.953,276.838 131.163,276.438 131.163 C 276.038 131.163,275.652 131.337,275.581 131.550 C 275.406 132.078,230.174 132.122,229.834 131.595 C 229.712 131.407,229.089 131.156,228.450 131.038 C 227.810 130.921,227.287 130.691,227.287 130.529 C 227.287 130.366,227.043 130.228,226.744 130.223 C 226.268 130.214,226.259 130.166,226.669 129.835 C 227.070 129.511,226.928 129.251,225.661 127.998 C 223.847 126.203,223.729 126.340,225.466 128.224 C 226.835 129.710,226.560 130.198,225.170 128.748 C 223.520 127.026,222.621 125.137,222.672 123.498 L 222.709 122.326 223.016 123.798 C 223.185 124.609,223.443 125.271,223.590 125.271 C 223.736 125.271,223.768 125.040,223.659 124.757 C 223.551 124.474,223.292 123.393,223.086 122.354 C 222.834 121.089,222.696 120.772,222.668 121.395 C 222.645 121.907,222.491 122.535,222.326 122.791 C 222.126 123.099,222.023 121.030,222.020 116.651 C 222.015 109.907,221.750 108.226,220.690 108.212 C 220.447 108.209,220.478 108.099,220.775 107.907 C 221.195 107.636,220.119 107.407,219.147 107.560 C 219.019 107.580,218.915 107.460,218.915 107.292 C 218.915 106.917,188.190 107.041,186.822 107.422 C 185.614 107.759,184.987 108.457,184.854 109.612 C 184.796 110.124,184.621 110.589,184.467 110.646 C 184.066 110.794,184.095 154.419,184.496 154.419 C 184.667 154.419,184.806 154.628,184.806 154.884 C 184.806 155.173,185.099 155.349,185.581 155.349 C 186.008 155.349,186.357 155.488,186.357 155.659 C 186.357 155.863,195.900 155.974,214.341 155.982 C 231.587 155.991,242.861 156.114,243.721 156.303 C 244.488 156.471,245.721 156.694,246.460 156.797 C 247.360 156.924,247.667 157.072,247.390 157.248 C 247.090 157.438,247.159 157.511,247.641 157.515 C 248.509 157.521,250.910 158.599,250.645 158.864 C 250.532 158.977,250.611 159.070,250.822 159.070 C 251.371 159.070,253.190 160.499,255.261 162.558 C 256.247 163.539,257.194 164.341,257.364 164.341 C 257.535 164.341,257.674 164.485,257.674 164.662 C 257.674 165.096,259.448 166.805,259.669 166.584 C 259.766 166.487,259.845 166.551,259.845 166.725 C 259.845 166.900,264.101 171.326,269.302 176.561 C 274.504 181.797,278.760 186.219,278.760 186.388 C 278.760 186.558,279.084 187.004,279.480 187.379 C 279.877 187.755,280.297 188.271,280.414 188.527 C 280.531 188.783,280.894 189.411,281.221 189.922 C 281.548 190.434,281.825 191.245,281.838 191.724 C 281.850 192.203,281.984 192.519,282.134 192.426 C 283.013 191.882,283.149 199.780,283.029 244.496 C 282.914 287.172,282.823 292.097,282.138 292.351 C 281.985 292.408,281.860 292.792,281.860 293.204 C 281.860 293.616,281.721 293.953,281.550 293.953 C 281.380 293.953,281.262 294.058,281.290 294.186 C 281.377 294.601,280.858 295.628,279.798 297.133 C 279.227 297.943,278.758 298.780,278.755 298.993 C 278.752 299.271,278.674 299.260,278.479 298.951 C 278.266 298.615,278.162 298.664,277.997 299.184 C 277.882 299.547,277.658 299.845,277.498 299.845 C 277.339 299.845,277.209 300.054,277.209 300.310 C 277.209 300.566,276.977 300.775,276.693 300.775 C 276.408 300.775,276.256 300.855,276.354 300.953 C 276.520 301.120,268.693 309.147,268.363 309.147 C 268.069 309.147,266.268 311.008,266.543 311.027 C 266.696 311.038,266.504 311.174,266.117 311.330 C 265.729 311.486,265.284 311.931,265.129 312.318 C 264.969 312.717,264.836 312.821,264.825 312.558 C 264.813 312.302,264.523 312.553,264.180 313.116 C 263.837 313.679,263.419 314.054,263.251 313.951 C 263.083 313.847,262.946 313.888,262.946 314.043 C 262.946 314.197,262.667 314.645,262.326 315.039 C 261.984 315.432,261.705 315.658,261.705 315.540 C 261.705 315.423,261.375 315.646,260.971 316.036 C 260.567 316.425,260.290 316.839,260.355 316.954 C 260.421 317.070,260.191 317.255,259.845 317.364 C 259.499 317.474,259.296 317.694,259.394 317.852 C 259.491 318.010,259.442 318.140,259.283 318.140 C 259.125 318.140,257.793 319.326,256.324 320.775 C 254.854 322.225,253.511 323.411,253.338 323.411 C 253.165 323.411,253.023 323.560,253.023 323.743 C 253.023 324.085,252.267 324.961,251.971 324.961 C 251.879 324.961,251.373 325.383,250.845 325.899 C 250.318 326.414,249.733 326.741,249.546 326.626 C 249.336 326.496,249.295 326.560,249.441 326.795 C 249.590 327.036,249.438 327.235,249.023 327.344 C 248.665 327.438,248.372 327.637,248.372 327.788 C 248.372 327.939,248.101 328.062,247.770 328.062 C 247.439 328.062,247.089 328.191,246.991 328.348 C 246.894 328.506,246.398 328.726,245.888 328.838 C 245.378 328.950,244.961 329.170,244.961 329.327 C 244.961 329.484,244.186 329.612,243.238 329.612 C 242.167 329.612,241.586 329.730,241.705 329.922 C 241.833 330.129,228.679 330.233,202.481 330.233 C 176.282 330.233,163.128 330.129,163.256 329.922 C 163.373 329.733,162.890 329.612,162.013 329.612 C 161.225 329.612,160.297 329.461,159.952 329.277 C 159.608 329.092,158.954 328.875,158.500 328.794 C 158.046 328.712,157.628 328.514,157.571 328.354 C 157.514 328.193,157.281 328.062,157.054 328.062 C 156.520 328.062,154.733 327.048,154.731 326.744 C 154.730 326.616,154.531 326.512,154.289 326.512 C 154.048 326.512,153.804 326.407,153.747 326.279 C 153.690 326.151,152.948 325.488,152.098 324.806 C 149.577 322.782,145.727 318.802,146.079 318.584 C 146.258 318.474,147.684 319.640,149.248 321.174 C 153.154 325.006,155.498 326.901,157.301 327.685 C 158.835 328.352,158.652 328.077,156.932 327.129 C 154.133 325.586,153.410 324.929,141.783 313.371 C 135.601 307.226,130.543 302.285,130.543 302.393 C 130.543 302.501,131.132 303.150,131.852 303.835 C 133.131 305.052,133.314 305.637,132.292 305.245 C 132.012 305.138,131.783 304.832,131.783 304.566 C 131.783 304.300,131.703 304.163,131.604 304.261 C 131.408 304.457,125.271 298.330,125.271 297.938 C 125.271 297.805,124.853 297.268,124.341 296.744 C 123.829 296.221,123.411 295.600,123.411 295.364 C 123.411 295.128,123.275 294.889,123.110 294.832 C 122.944 294.775,122.766 294.450,122.713 294.109 C 122.661 293.767,122.485 293.279,122.324 293.023 C 121.517 291.747,121.454 284.188,121.450 188.837 C 121.446 89.042,121.479 85.592,122.460 83.760 C 122.642 83.420,122.791 82.865,122.791 82.527 C 122.791 82.189,122.895 81.866,123.023 81.809 C 123.151 81.752,123.520 81.186,123.842 80.552 C 124.165 79.917,124.551 79.473,124.700 79.565 C 124.849 79.657,124.881 79.898,124.771 80.099 C 124.660 80.300,125.210 79.767,125.992 78.915 C 126.774 78.062,127.420 77.225,127.428 77.054 C 127.435 76.884,127.078 77.163,126.633 77.674 C 126.189 78.186,125.691 78.566,125.525 78.519 C 125.360 78.473,125.296 78.549,125.383 78.689 C 125.470 78.830,125.412 79.147,125.256 79.395 C 125.023 79.762,124.970 79.739,124.966 79.269 C 124.960 78.566,124.574 78.984,134.341 69.116 C 138.733 64.679,142.326 60.917,142.326 60.757 C 142.326 60.596,142.434 60.465,142.567 60.465 C 142.973 60.465,144.783 58.685,144.582 58.483 C 144.478 58.380,144.570 58.295,144.787 58.295 C 145.003 58.295,147.191 56.271,149.649 53.798 C 152.107 51.326,154.222 49.302,154.349 49.302 C 154.476 49.302,154.927 48.984,155.352 48.594 C 156.151 47.861,158.132 46.822,158.729 46.822 C 158.916 46.822,159.070 46.682,159.070 46.512 C 159.070 46.341,159.663 46.199,160.388 46.197 C 161.112 46.194,161.915 46.056,162.171 45.890 C 162.725 45.530,241.900 45.675,244.008 46.040 M158.372 47.182 C 157.903 47.353,157.519 47.614,157.519 47.762 C 157.519 47.991,159.601 47.298,159.974 46.944 C 160.209 46.721,159.239 46.865,158.372 47.182 M244.806 47.132 C 245.660 47.499,245.963 47.499,245.736 47.132 C 245.631 46.961,245.239 46.832,244.865 46.843 C 244.210 46.865,244.208 46.875,244.806 47.132 M154.884 49.587 C 153.860 50.415,152.395 51.764,151.628 52.586 C 150.656 53.628,150.916 53.451,152.484 52.004 C 153.723 50.861,155.293 49.558,155.973 49.108 C 156.653 48.658,157.209 48.238,157.209 48.176 C 157.209 47.839,156.556 48.236,154.884 49.587 M250.146 50.255 C 250.525 50.650,250.913 50.895,251.009 50.800 C 251.104 50.705,250.794 50.382,250.320 50.082 L 249.457 49.538 250.146 50.255 M253.709 53.497 C 255.025 54.841,256.158 55.877,256.228 55.800 C 256.298 55.722,255.222 54.623,253.837 53.356 L 251.318 51.054 253.709 53.497 M182.558 52.326 C 193.516 52.371,211.446 52.371,222.403 52.326 C 233.360 52.280,224.395 52.243,202.481 52.243 C 180.566 52.243,171.601 52.280,182.558 52.326 M141.705 62.481 C 137.188 67.000,133.572 70.698,133.669 70.698 C 133.767 70.698,137.463 67.061,141.884 62.617 C 151.271 53.180,150.212 54.264,150.049 54.264 C 149.977 54.264,146.222 57.961,141.705 62.481 M266.822 66.357 C 272.448 71.984,277.121 76.589,277.206 76.589 C 277.291 76.589,272.758 71.984,267.132 66.357 C 261.506 60.729,256.833 56.124,256.748 56.124 C 256.662 56.124,261.196 60.729,266.822 66.357 M129.302 74.884 C 128.376 75.822,127.698 76.589,127.796 76.589 C 127.986 76.589,131.163 73.475,131.163 73.289 C 131.163 73.039,130.911 73.254,129.302 74.884 M133.947 79.302 L 131.318 82.016 134.031 79.387 C 135.523 77.941,136.744 76.720,136.744 76.674 C 136.744 76.448,136.388 76.782,133.947 79.302 M123.876 81.550 C 123.611 82.062,123.465 82.481,123.550 82.481 C 123.635 82.481,123.921 82.062,124.186 81.550 C 124.451 81.039,124.597 80.620,124.512 80.620 C 124.427 80.620,124.141 81.039,123.876 81.550 M280.968 82.798 C 281.437 84.186,281.702 84.456,281.417 83.256 C 281.296 82.744,281.063 82.189,280.900 82.023 C 280.737 81.856,280.767 82.205,280.968 82.798 M122.631 84.419 C 121.312 88.057,121.511 291.638,122.834 292.850 C 123.099 293.093,123.134 293.017,122.969 292.558 C 122.846 292.217,122.613 290.264,122.450 288.217 C 122.024 282.875,122.256 87.096,122.690 85.349 C 122.993 84.129,122.955 83.525,122.631 84.419 M275.546 85.426 C 275.871 86.902,276.316 87.788,276.090 86.512 C 275.984 85.915,275.772 85.217,275.619 84.961 C 275.437 84.657,275.411 84.818,275.546 85.426 M194.961 106.279 C 197.903 106.330,202.717 106.330,205.659 106.279 C 208.601 106.228,206.194 106.186,200.310 106.186 C 194.426 106.186,192.019 106.228,194.961 106.279 M214.504 106.274 C 215.234 106.339,216.350 106.339,216.985 106.272 C 217.620 106.205,217.023 106.152,215.659 106.153 C 214.295 106.154,213.775 106.208,214.504 106.274 M183.665 109.147 C 183.665 110.256,183.721 110.709,183.790 110.155 C 183.859 109.601,183.859 108.694,183.790 108.140 C 183.721 107.585,183.665 108.039,183.665 109.147 M282.401 112.713 C 282.681 115.268,282.685 121.469,282.408 122.791 C 282.212 123.730,282.233 123.792,282.563 123.256 C 283.038 122.487,283.000 112.790,282.519 111.628 C 282.272 111.033,282.245 111.284,282.401 112.713 M183.150 117.414 C 182.870 125.784,182.892 153.956,183.178 153.669 C 183.357 153.491,183.572 111.318,183.394 111.318 C 183.372 111.318,183.262 114.061,183.150 117.414 M283.489 117.674 C 283.492 118.357,283.556 118.599,283.630 118.213 C 283.704 117.828,283.702 117.270,283.624 116.973 C 283.546 116.677,283.486 116.992,283.489 117.674 M229.219 119.380 C 229.219 119.977,229.283 120.221,229.361 119.922 C 229.439 119.624,229.439 119.136,229.361 118.837 C 229.283 118.539,229.219 118.783,229.219 119.380 M271.938 125.271 L 269.302 125.466 271.842 125.524 C 273.267 125.556,274.466 125.445,274.574 125.271 C 274.679 125.101,274.722 124.987,274.669 125.019 C 274.617 125.051,273.388 125.164,271.938 125.271 M280.960 126.375 C 280.602 126.982,280.450 127.392,280.622 127.286 C 280.958 127.078,281.964 125.271,281.744 125.271 C 281.671 125.271,281.319 125.768,280.960 126.375 M278.885 128.867 C 278.284 129.404,278.199 129.564,278.630 129.349 C 279.246 129.041,280.236 128.062,279.931 128.062 C 279.852 128.062,279.381 128.424,278.885 128.867 M227.940 130.088 C 229.440 131.588,275.484 131.710,277.028 130.218 C 277.184 130.068,276.765 130.114,276.098 130.321 C 273.963 130.983,230.630 130.850,228.869 130.175 C 227.832 129.778,227.609 129.758,227.940 130.088 M185.623 156.831 C 185.548 156.954,198.387 157.054,214.155 157.054 C 229.923 157.054,242.363 156.954,241.800 156.831 C 240.463 156.539,185.804 156.540,185.623 156.831 M245.891 157.624 C 245.891 157.705,246.519 157.985,247.287 158.247 C 248.689 158.724,249.289 158.661,247.984 158.173 C 246.672 157.682,245.891 157.478,245.891 157.624 M253.382 162.041 C 253.409 162.198,258.328 167.140,264.312 173.023 C 270.297 178.907,273.798 182.282,272.093 180.523 C 269.853 178.213,255.090 163.440,253.468 161.886 C 253.394 161.815,253.355 161.885,253.382 162.041 M253.488 171.163 C 257.237 174.915,260.375 177.984,260.460 177.984 C 260.545 177.984,257.547 174.915,253.798 171.163 C 250.049 167.411,246.912 164.341,246.827 164.341 C 246.742 164.341,249.739 167.411,253.488 171.163 M268.527 186.202 C 271.679 189.357,274.327 191.938,274.412 191.938 C 274.498 191.938,271.989 189.357,268.837 186.202 C 265.686 183.047,263.037 180.465,262.952 180.465 C 262.867 180.465,265.376 183.047,268.527 186.202 M275.349 184.098 C 275.349 184.245,276.081 185.057,276.976 185.903 C 278.742 187.574,278.822 187.680,275.736 184.261 C 275.523 184.025,275.349 183.952,275.349 184.098 M280.487 190.543 C 281.139 192.409,281.456 193.188,281.638 193.370 C 281.986 193.717,281.339 191.774,280.791 190.825 C 280.505 190.328,280.368 190.202,280.487 190.543 M180.543 210.150 C 181.353 210.214,182.678 210.214,183.488 210.150 C 184.298 210.087,183.636 210.034,182.016 210.034 C 180.395 210.034,179.733 210.087,180.543 210.150 M224.888 210.145 C 225.359 210.216,226.057 210.214,226.438 210.141 C 226.820 210.067,226.434 210.009,225.581 210.011 C 224.729 210.013,224.417 210.074,224.888 210.145 M276.119 245.891 C 276.119 264.907,276.156 272.686,276.201 263.178 C 276.247 253.671,276.247 238.112,276.201 228.605 C 276.156 219.097,276.119 226.876,276.119 245.891 M193.588 215.736 C 198.845 215.784,207.356 215.784,212.503 215.736 C 217.650 215.689,213.349 215.650,202.946 215.650 C 192.543 215.650,188.332 215.689,193.588 215.736 M186.512 217.054 C 186.623 217.235,186.308 217.364,185.755 217.364 C 184.958 217.364,184.806 217.485,184.806 218.114 C 184.806 218.526,184.659 218.912,184.479 218.972 C 184.095 219.100,184.035 267.913,184.417 268.198 C 184.546 268.294,184.805 268.651,184.993 268.992 C 185.197 269.363,185.726 269.651,186.310 269.710 C 186.847 269.763,187.289 269.972,187.292 270.175 C 187.294 270.394,187.418 270.355,187.597 270.078 C 187.803 269.759,187.899 269.736,187.902 270.005 C 187.906 270.317,191.097 270.395,203.411 270.382 C 213.148 270.372,218.915 270.254,218.915 270.067 C 218.915 269.902,219.264 269.767,219.690 269.767 C 220.116 269.767,220.465 269.620,220.465 269.439 C 220.465 269.258,220.582 269.183,220.724 269.271 C 220.867 269.359,221.215 268.944,221.499 268.348 C 222.067 267.157,222.317 218.915,221.755 218.915 C 221.612 218.915,221.336 218.566,221.142 218.140 C 220.930 217.674,220.531 217.364,220.143 217.364 C 219.789 217.364,219.585 217.225,219.690 217.054 C 219.817 216.849,214.209 216.744,203.101 216.744 C 191.993 216.744,186.385 216.849,186.512 217.054 M183.148 219.147 C 182.859 222.201,182.940 268.175,183.232 267.442 C 183.444 266.911,183.630 217.054,183.421 217.054 C 183.379 217.054,183.257 217.996,183.148 219.147 M216.979 218.765 C 220.666 219.728,220.465 218.310,220.465 243.398 C 220.465 261.102,220.393 264.622,220.009 265.710 C 219.528 267.074,218.808 268.007,218.487 267.685 C 218.381 267.580,218.295 267.656,218.295 267.855 C 218.295 268.615,188.151 268.343,187.174 267.574 C 186.724 267.221,186.357 266.663,186.357 266.334 C 186.357 266.005,186.217 265.736,186.047 265.736 C 185.843 265.736,185.736 258.140,185.736 243.566 C 185.736 228.992,185.843 221.395,186.047 221.395 C 186.217 221.395,186.357 221.080,186.357 220.695 C 186.357 219.808,187.288 219.218,189.457 218.731 C 192.003 218.160,214.768 218.188,216.979 218.765 M229.269 245.581 C 229.269 247.884,229.318 248.826,229.377 247.674 C 229.437 246.523,229.437 244.640,229.377 243.488 C 229.318 242.337,229.269 243.279,229.269 245.581 M183.703 270.830 C 184.370 271.371,209.141 271.497,218.140 271.005 C 220.839 270.857,215.208 270.783,203.256 270.810 C 192.682 270.833,183.822 270.738,183.566 270.597 C 183.310 270.457,183.372 270.561,183.703 270.830 M198.382 277.128 C 199.284 277.191,200.679 277.190,201.483 277.127 C 202.288 277.063,201.550 277.012,199.845 277.012 C 198.140 277.013,197.481 277.065,198.382 277.128 M281.139 292.231 C 280.874 293.008,280.772 293.643,280.911 293.643 C 281.166 293.643,281.920 291.119,281.724 290.923 C 281.667 290.866,281.404 291.455,281.139 292.231 M131.008 293.953 C 132.020 294.977,132.919 295.814,133.004 295.814 C 133.089 295.814,132.330 294.977,131.318 293.953 C 130.305 292.930,129.407 292.093,129.322 292.093 C 129.236 292.093,129.995 292.930,131.008 293.953 M123.756 294.961 C 124.413 296.210,129.020 301.327,129.988 301.883 C 130.208 302.010,129.258 300.940,127.878 299.506 C 126.498 298.072,124.979 296.306,124.503 295.581 C 123.576 294.168,123.155 293.819,123.756 294.961 M145.736 308.682 C 152.642 315.589,158.361 321.240,158.447 321.240 C 158.532 321.240,152.952 315.589,146.047 308.682 C 139.141 301.775,133.421 296.124,133.336 296.124 C 133.251 296.124,138.831 301.775,145.736 308.682 M274.402 301.568 C 273.993 302.003,273.867 302.280,274.122 302.182 C 274.526 302.027,275.530 300.775,275.250 300.775 C 275.193 300.775,274.812 301.132,274.402 301.568 M139.772 311.747 C 145.835 317.855,146.367 318.450,145.770 318.450 C 145.483 318.450,139.509 312.591,137.752 310.586 C 137.198 309.953,136.744 309.491,136.744 309.559 C 136.744 309.627,135.862 308.830,134.785 307.787 C 133.033 306.093,132.608 305.426,133.278 305.426 C 133.399 305.426,136.321 308.271,139.772 311.747 M268.050 307.971 L 266.512 309.585 268.062 308.215 C 269.471 306.970,270.013 306.357,269.704 306.357 C 269.641 306.357,268.897 307.083,268.050 307.971 M257.047 310.000 L 254.419 312.713 257.132 310.084 C 259.652 307.643,259.986 307.287,259.761 307.287 C 259.714 307.287,258.493 308.508,257.047 310.000 M264.013 311.758 C 263.682 311.999,263.494 312.279,263.594 312.380 C 263.694 312.480,264.030 312.282,264.339 311.940 C 264.998 311.212,264.863 311.136,264.013 311.758 M256.737 318.992 L 254.109 321.705 256.822 319.077 C 259.342 316.635,259.676 316.279,259.451 316.279 C 259.404 316.279,258.183 317.500,256.737 318.992 M186.744 323.333 C 190.795 323.382,197.422 323.382,201.473 323.333 C 205.523 323.284,202.209 323.244,194.109 323.244 C 186.008 323.244,182.694 323.284,186.744 323.333 M216.977 323.332 C 219.066 323.386,222.484 323.386,224.574 323.332 C 226.663 323.279,224.953 323.235,220.775 323.235 C 216.597 323.235,214.888 323.279,216.977 323.332 M250.698 324.559 C 249.845 325.347,248.527 326.388,247.769 326.872 C 247.011 327.356,246.543 327.752,246.730 327.752 C 247.179 327.752,250.453 325.273,251.608 324.058 C 252.941 322.658,252.480 322.911,250.698 324.559 M166.266 323.640 C 167.409 323.700,169.363 323.700,170.607 323.641 C 171.850 323.582,170.915 323.534,168.527 323.533 C 166.140 323.533,165.122 323.581,166.266 323.640 M234.818 323.640 C 235.804 323.702,237.339 323.701,238.228 323.639 C 239.117 323.577,238.310 323.526,236.434 323.527 C 234.558 323.528,233.831 323.579,234.818 323.640 M160.155 328.767 C 161.050 329.316,242.966 329.322,243.876 328.773 C 244.400 328.457,244.304 328.433,243.256 328.618 C 241.612 328.908,163.082 328.902,161.085 328.612 C 159.791 328.423,159.637 328.449,160.155 328.767 " stroke="none" fill="#9a989a" fill-rule="evenodd"></path><path id="path3" d="M162.853 46.432 C 164.336 46.489,166.848 46.489,168.434 46.433 C 170.020 46.376,168.806 46.330,165.736 46.330 C 162.667 46.329,161.369 46.375,162.853 46.432 M228.760 46.420 C 229.143 46.494,229.771 46.494,230.155 46.420 C 230.539 46.346,230.225 46.286,229.457 46.286 C 228.690 46.286,228.376 46.346,228.760 46.420 M236.063 46.433 C 237.734 46.489,240.385 46.489,241.954 46.432 C 243.523 46.376,242.155 46.331,238.915 46.331 C 235.674 46.331,234.391 46.377,236.063 46.433 M247.442 47.973 C 247.698 48.068,248.085 48.286,248.302 48.458 C 248.597 48.691,248.647 48.642,248.501 48.261 C 248.394 47.981,248.007 47.763,247.641 47.776 C 247.188 47.793,247.124 47.856,247.442 47.973 M249.457 49.302 C 249.352 49.473,249.453 49.612,249.682 49.612 C 249.911 49.612,250.861 50.390,251.794 51.341 C 253.604 53.187,254.574 53.886,254.574 53.344 C 254.574 53.168,254.438 53.023,254.271 53.023 C 254.105 53.023,253.039 52.116,251.903 51.008 C 249.638 48.798,249.730 48.862,249.457 49.302 M243.721 53.109 C 243.721 53.168,244.174 53.549,244.729 53.954 C 245.352 54.411,245.569 54.486,245.297 54.151 C 244.884 53.642,243.721 52.874,243.721 53.109 M255.969 55.194 C 256.278 55.535,256.674 55.814,256.851 55.814 C 257.027 55.814,256.872 55.535,256.506 55.194 C 256.139 54.853,255.743 54.574,255.624 54.574 C 255.505 54.574,255.660 54.853,255.969 55.194 M257.521 56.746 C 257.831 57.088,258.148 57.304,258.226 57.226 C 258.394 57.058,257.510 56.124,257.183 56.124 C 257.060 56.124,257.211 56.404,257.521 56.746 M258.837 57.555 C 258.717 57.746,258.895 58.151,259.232 58.456 C 259.582 58.773,259.845 58.857,259.845 58.653 C 259.845 58.456,259.716 58.295,259.558 58.295 C 259.400 58.295,259.222 58.050,259.163 57.752 C 259.094 57.405,258.977 57.334,258.837 57.555 M261.240 60.465 C 261.901 61.195,262.381 61.280,262.128 60.622 C 262.031 60.367,261.826 60.236,261.673 60.330 C 261.520 60.425,261.395 60.354,261.395 60.173 C 261.395 59.993,261.234 59.845,261.037 59.845 C 260.834 59.845,260.922 60.113,261.240 60.465 M262.791 62.016 C 263.099 62.357,263.496 62.636,263.672 62.636 C 263.849 62.636,263.693 62.357,263.327 62.016 C 262.961 61.674,262.564 61.395,262.446 61.395 C 262.327 61.395,262.482 61.674,262.791 62.016 M264.082 62.863 C 263.991 63.011,264.535 63.724,265.291 64.448 C 266.048 65.172,266.667 65.633,266.667 65.472 C 266.667 65.312,266.176 64.750,265.577 64.224 C 264.977 63.697,264.500 63.183,264.517 63.080 C 264.572 62.747,264.253 62.587,264.082 62.863 M258.295 67.132 C 258.873 67.729,259.416 68.217,259.501 68.217 C 259.587 68.217,259.183 67.729,258.605 67.132 C 258.026 66.535,257.483 66.047,257.398 66.047 C 257.312 66.047,257.716 66.535,258.295 67.132 M268.527 67.463 C 268.527 67.839,271.759 70.963,271.996 70.817 C 272.135 70.731,272.248 70.857,272.248 71.096 C 272.248 71.725,273.376 72.681,273.631 72.268 C 273.743 72.087,273.640 71.938,273.401 71.938 C 273.163 71.938,272.809 71.589,272.615 71.163 C 272.420 70.736,272.049 70.388,271.790 70.388 C 271.530 70.388,271.318 70.277,271.318 70.141 C 271.318 69.853,268.970 67.287,268.706 67.287 C 268.608 67.287,268.527 67.366,268.527 67.463 M274.884 74.109 C 275.192 74.450,275.589 74.729,275.765 74.729 C 275.942 74.729,275.786 74.450,275.420 74.109 C 275.054 73.767,274.657 73.488,274.539 73.488 C 274.420 73.488,274.575 73.767,274.884 74.109 M276.434 75.659 C 277.110 76.406,277.209 76.423,277.209 75.796 C 277.209 75.530,277.070 75.398,276.899 75.504 C 276.729 75.609,276.589 75.548,276.589 75.367 C 276.589 75.187,276.428 75.039,276.231 75.039 C 276.028 75.039,276.116 75.307,276.434 75.659 M278.140 77.519 C 278.504 78.031,278.967 78.439,279.168 78.425 C 279.428 78.408,279.422 78.355,279.147 78.244 C 278.934 78.158,278.760 77.950,278.760 77.781 C 278.760 77.441,277.985 76.589,277.675 76.589 C 277.566 76.589,277.775 77.008,278.140 77.519 M279.690 79.668 C 279.690 79.826,279.881 80.147,280.114 80.380 C 280.347 80.613,280.636 81.112,280.755 81.487 C 280.874 81.863,281.090 82.171,281.234 82.171 C 281.379 82.171,281.339 81.752,281.145 81.240 C 280.952 80.729,280.685 80.310,280.552 80.310 C 280.419 80.310,280.310 80.101,280.310 79.845 C 280.310 79.589,280.171 79.380,280.000 79.380 C 279.829 79.380,279.690 79.509,279.690 79.668 M281.474 83.256 C 281.556 83.682,281.676 84.031,281.742 84.031 C 281.807 84.031,281.860 83.682,281.860 83.256 C 281.860 82.829,281.740 82.481,281.593 82.481 C 281.446 82.481,281.393 82.829,281.474 83.256 M282.109 97.092 C 282.161 104.127,282.333 110.105,282.495 110.482 C 282.683 110.919,282.758 106.554,282.705 98.295 C 282.655 90.636,282.499 85.215,282.319 84.905 C 282.119 84.561,282.047 88.709,282.109 97.092 M121.932 87.442 C 121.932 88.039,121.996 88.283,122.074 87.984 C 122.152 87.686,122.152 87.198,122.074 86.899 C 121.996 86.601,121.932 86.845,121.932 87.442 M190.930 100.387 C 197.624 100.434,208.578 100.434,215.271 100.387 C 221.965 100.341,216.488 100.303,203.101 100.303 C 189.713 100.303,184.236 100.341,190.930 100.387 M229.524 113.548 C 229.488 119.293,229.562 124.059,229.690 124.139 C 229.818 124.218,229.887 121.191,229.843 117.413 C 229.693 104.374,229.591 103.135,229.524 113.548 M176.891 126.512 C 176.891 138.876,176.930 143.934,176.977 137.752 C 177.024 131.570,177.024 121.453,176.977 115.271 C 176.930 109.089,176.891 114.147,176.891 126.512 M184.190 106.810 C 184.017 107.265,183.902 108.640,183.933 109.865 C 183.984 111.826,184.004 111.897,184.105 110.457 C 184.169 109.533,184.347 108.900,184.513 109.002 C 184.674 109.102,184.806 108.827,184.806 108.390 C 184.806 107.913,184.981 107.597,185.245 107.597 C 185.487 107.597,185.743 107.422,185.814 107.209 C 185.914 106.908,189.479 106.800,201.886 106.722 C 217.556 106.624,221.269 106.739,220.916 107.310 C 220.818 107.468,220.964 107.597,221.240 107.597 C 221.516 107.597,221.656 107.736,221.550 107.907 C 221.445 108.078,221.507 108.217,221.687 108.217 C 221.872 108.217,222.032 108.929,222.053 109.845 L 222.090 111.473 222.384 109.641 C 222.546 108.634,222.596 107.482,222.496 107.083 L 222.314 106.357 203.895 106.357 C 193.765 106.357,185.258 106.273,184.991 106.170 C 184.657 106.042,184.406 106.242,184.190 106.810 M282.935 117.645 C 282.941 120.868,283.034 123.101,283.142 122.606 C 283.408 121.382,283.407 115.246,283.140 113.333 C 283.014 112.424,282.929 114.207,282.935 117.645 M183.655 113.643 C 183.657 114.496,183.717 114.808,183.788 114.337 C 183.860 113.865,183.858 113.168,183.784 112.786 C 183.711 112.405,183.652 112.791,183.655 113.643 M281.795 125.183 C 281.506 125.986,281.329 126.704,281.403 126.777 C 281.476 126.851,281.634 126.646,281.753 126.323 C 281.873 126.001,282.064 125.667,282.178 125.581 C 282.499 125.342,282.833 123.721,282.562 123.721 C 282.429 123.721,282.084 124.379,281.795 125.183 M247.984 125.503 C 250.756 125.555,255.291 125.555,258.062 125.503 C 260.833 125.452,258.566 125.410,253.023 125.410 C 247.481 125.410,245.213 125.452,247.984 125.503 M183.697 132.713 C 183.697 136.209,183.742 137.640,183.797 135.891 C 183.852 134.143,183.852 131.283,183.797 129.535 C 183.742 127.787,183.697 129.217,183.697 132.713 M280.310 127.907 C 279.910 128.333,279.694 128.682,279.832 128.682 C 280.065 128.682,281.240 127.478,281.240 127.239 C 281.240 126.999,281.003 127.170,280.310 127.907 M278.837 129.216 C 278.624 129.292,278.450 129.562,278.450 129.815 C 278.450 130.207,278.525 130.201,278.952 129.775 C 279.497 129.229,279.450 128.997,278.837 129.216 M275.039 130.853 C 273.966 131.079,273.964 131.082,274.884 131.117 C 275.395 131.137,276.023 131.018,276.279 130.853 C 276.795 130.519,276.624 130.519,275.039 130.853 M231.628 131.473 C 231.628 131.677,238.863 131.783,252.713 131.783 C 266.563 131.783,273.798 131.677,273.798 131.473 C 273.798 131.269,266.563 131.163,252.713 131.163 C 238.863 131.163,231.628 131.269,231.628 131.473 M183.603 154.341 L 183.566 156.589 185.969 156.552 L 188.372 156.515 186.690 156.210 C 184.630 155.836,184.363 155.584,183.959 153.634 L 183.639 152.093 183.603 154.341 M176.829 155.039 C 176.829 155.806,176.889 156.120,176.963 155.736 C 177.037 155.353,177.037 154.725,176.963 154.341 C 176.889 153.957,176.829 154.271,176.829 155.039 M243.747 157.010 C 244.075 157.293,246.202 157.448,246.202 157.190 C 246.202 157.030,245.620 156.899,244.910 156.899 C 244.199 156.899,243.676 156.949,243.747 157.010 M247.597 157.900 C 248.109 158.083,248.597 158.316,248.682 158.419 C 249.073 158.888,250.853 159.690,250.853 159.397 C 250.853 159.217,250.643 159.070,250.388 159.070 C 250.132 159.070,249.922 158.963,249.922 158.833 C 249.922 158.550,247.603 157.509,247.052 157.544 C 246.840 157.557,247.085 157.718,247.597 157.900 M176.837 159.380 C 176.837 160.318,176.895 160.702,176.966 160.233 C 177.037 159.764,177.037 158.996,176.966 158.527 C 176.895 158.058,176.837 158.442,176.837 159.380 M251.163 159.943 C 251.163 160.071,251.557 160.409,252.039 160.694 C 252.521 160.979,254.126 162.430,255.605 163.919 C 257.084 165.409,258.295 166.473,258.295 166.285 C 258.295 166.097,258.187 165.897,258.056 165.840 C 257.925 165.783,257.507 165.334,257.126 164.842 C 256.746 164.350,256.434 164.012,256.434 164.091 C 256.434 164.170,255.492 163.307,254.341 162.174 C 252.392 160.254,251.163 159.392,251.163 159.943 M187.287 163.018 C 210.708 163.227,243.936 163.233,243.614 163.028 C 243.417 162.903,228.605 162.831,210.698 162.868 C 192.791 162.906,182.256 162.973,187.287 163.018 M258.605 166.632 C 258.605 166.750,258.884 167.147,259.225 167.513 C 259.566 167.879,259.845 168.035,259.845 167.858 C 259.845 167.682,259.566 167.285,259.225 166.977 C 258.884 166.668,258.605 166.513,258.605 166.632 M262.029 170.367 C 262.774 171.122,263.522 171.655,263.692 171.550 C 263.880 171.434,263.849 171.309,263.613 171.230 C 263.400 171.159,262.765 170.627,262.202 170.047 C 261.638 169.467,261.064 168.992,260.926 168.992 C 260.788 168.992,261.284 169.611,262.029 170.367 M264.667 172.950 C 264.829 173.081,265.380 173.534,265.891 173.957 L 266.822 174.726 265.911 173.720 C 265.410 173.166,264.859 172.713,264.686 172.713 C 264.491 172.713,264.484 172.803,264.667 172.950 M266.977 174.791 C 266.977 175.144,271.342 179.689,272.403 180.441 C 272.744 180.682,272.151 180.001,271.085 178.926 C 270.019 177.851,269.147 176.851,269.147 176.703 C 269.147 176.555,268.938 176.434,268.682 176.434 C 268.426 176.434,268.217 176.289,268.217 176.111 C 268.217 175.933,267.938 175.488,267.597 175.122 C 267.256 174.756,266.977 174.607,266.977 174.791 M274.875 183.247 C 276.055 184.436,277.077 185.352,277.147 185.282 C 277.318 185.111,273.337 181.085,272.997 181.085 C 272.850 181.085,273.695 182.058,274.875 183.247 M277.820 186.339 C 278.217 187.081,278.760 187.447,278.760 186.973 C 278.760 186.604,278.006 185.736,277.686 185.736 C 277.582 185.736,277.643 186.008,277.820 186.339 M279.091 187.636 C 279.079 187.914,279.279 188.315,279.535 188.527 C 279.791 188.739,280.000 189.105,280.000 189.340 C 280.000 189.575,280.118 189.767,280.263 189.767 C 280.407 189.767,280.687 190.081,280.884 190.465 C 281.237 191.150,281.240 191.149,281.046 190.388 C 280.937 189.961,280.727 189.566,280.579 189.509 C 280.431 189.452,280.310 189.208,280.310 188.966 C 280.310 188.725,280.192 188.527,280.047 188.527 C 279.903 188.527,279.633 188.213,279.448 187.829 C 279.207 187.330,279.106 187.275,279.091 187.636 M281.348 191.822 C 282.152 194.504,282.189 197.010,282.104 243.101 L 282.016 291.008 281.302 292.982 C 280.910 294.068,280.646 295.013,280.715 295.082 C 280.784 295.151,281.047 294.611,281.300 293.883 C 281.552 293.154,281.954 292.070,282.193 291.473 C 282.556 290.564,282.641 282.982,282.717 244.806 C 282.810 197.630,282.684 192.173,281.481 191.430 C 281.300 191.318,281.245 191.479,281.348 191.822 M187.054 210.148 C 187.694 210.215,188.740 210.215,189.380 210.148 C 190.019 210.081,189.496 210.027,188.217 210.027 C 186.938 210.027,186.415 210.081,187.054 210.148 M216.822 210.152 C 217.802 210.213,219.407 210.213,220.388 210.152 C 221.368 210.090,220.566 210.040,218.605 210.040 C 216.643 210.040,215.841 210.090,216.822 210.152 M229.601 227.132 C 229.601 235.488,229.641 238.862,229.690 234.630 C 229.738 230.397,229.738 223.560,229.690 219.436 C 229.641 215.312,229.601 218.775,229.601 227.132 M183.771 216.023 C 183.658 216.135,183.582 217.216,183.603 218.424 L 183.639 220.620 183.959 219.079 C 184.383 217.034,184.616 216.857,187.246 216.593 C 188.482 216.469,189.451 216.332,189.398 216.289 C 189.153 216.088,183.951 215.842,183.771 216.023 M219.380 216.103 L 218.140 216.305 219.493 216.558 C 221.431 216.920,222.016 217.530,222.016 219.190 C 222.016 221.026,222.227 220.724,222.460 218.556 C 222.608 217.182,222.542 216.695,222.155 216.308 C 221.638 215.791,221.407 215.774,219.380 216.103 M222.145 243.411 C 222.145 246.736,222.191 248.097,222.247 246.434 C 222.302 244.771,222.302 242.050,222.247 240.388 C 222.191 238.725,222.145 240.085,222.145 243.411 M183.687 244.031 C 183.687 246.333,183.736 247.275,183.796 246.124 C 183.855 244.973,183.855 243.089,183.796 241.938 C 183.736 240.787,183.687 241.729,183.687 244.031 M229.599 261.240 C 229.599 268.062,229.640 270.809,229.690 267.344 C 229.740 263.879,229.739 258.297,229.689 254.941 C 229.639 251.584,229.599 254.419,229.599 261.240 M222.049 266.765 C 222.012 268.736,221.624 269.767,220.919 269.767 C 220.670 269.767,220.465 269.906,220.465 270.075 C 220.465 270.272,215.170 270.411,205.659 270.465 L 190.853 270.549 206.560 270.623 L 222.267 270.698 222.459 269.225 C 222.565 268.415,222.524 267.124,222.367 266.357 L 222.083 264.961 222.049 266.765 M183.602 268.295 L 183.566 270.698 187.209 270.634 C 190.584 270.575,190.651 270.563,188.127 270.467 C 184.866 270.343,184.316 269.959,183.909 267.516 L 183.638 265.891 183.602 268.295 M185.504 277.131 C 187.337 277.185,190.337 277.185,192.171 277.131 C 194.004 277.076,192.504 277.031,188.837 277.031 C 185.171 277.031,183.671 277.076,185.504 277.131 M209.690 277.130 C 211.012 277.188,213.174 277.188,214.496 277.130 C 215.818 277.072,214.736 277.024,212.093 277.024 C 209.450 277.024,208.368 277.072,209.690 277.130 M221.783 277.121 C 222.252 277.192,223.019 277.192,223.488 277.121 C 223.957 277.050,223.574 276.992,222.636 276.992 C 221.698 276.992,221.314 277.050,221.783 277.121 M279.621 296.144 C 279.334 296.645,279.208 297.054,279.342 297.054 C 279.638 297.054,280.469 295.560,280.279 295.369 C 280.204 295.295,279.908 295.643,279.621 296.144 M277.674 298.450 C 277.163 299.011,275.700 300.635,274.423 302.060 C 273.146 303.485,270.948 305.698,269.538 306.977 C 265.493 310.647,254.264 321.813,254.264 322.166 C 254.264 322.342,255.407 321.333,256.804 319.925 C 258.201 318.517,259.456 317.399,259.594 317.442 C 259.732 317.484,259.845 317.380,259.845 317.209 C 259.845 316.806,262.232 314.419,262.636 314.419 C 262.806 314.419,262.946 314.269,262.946 314.086 C 262.946 313.904,263.145 313.555,263.389 313.311 C 263.632 313.068,263.981 312.868,264.164 312.868 C 264.347 312.868,264.496 312.722,264.496 312.544 C 264.496 312.366,264.839 311.877,265.257 311.459 C 265.676 311.040,266.164 310.698,266.342 310.698 C 266.521 310.698,266.667 310.488,266.667 310.233 C 266.667 309.977,266.884 309.767,267.150 309.767 C 267.416 309.767,267.547 309.628,267.442 309.457 C 267.336 309.287,267.408 309.147,267.601 309.147 C 268.046 309.147,275.659 301.549,275.659 301.105 C 275.659 300.924,275.868 300.775,276.124 300.775 C 276.380 300.775,276.589 300.558,276.589 300.292 C 276.589 300.026,276.729 299.895,276.899 300.000 C 277.070 300.105,277.209 300.041,277.209 299.858 C 277.209 299.674,277.710 299.038,278.321 298.444 C 278.933 297.850,279.247 297.379,279.019 297.397 C 278.791 297.415,278.186 297.889,277.674 298.450 M267.432 299.612 L 265.581 301.550 267.519 299.700 C 268.585 298.682,269.457 297.810,269.457 297.762 C 269.457 297.533,269.151 297.812,267.432 299.612 M263.709 303.333 L 262.171 304.961 263.798 303.423 C 264.694 302.576,265.426 301.844,265.426 301.795 C 265.426 301.563,265.139 301.821,263.709 303.333 M253.638 313.101 L 250.078 316.744 253.721 313.183 C 255.725 311.225,257.364 309.585,257.364 309.540 C 257.364 309.317,256.946 309.717,253.638 313.101 M253.463 322.589 C 253.356 322.869,253.178 323.043,253.068 322.976 C 252.958 322.909,252.618 323.189,252.311 323.598 C 252.005 324.007,251.900 324.341,252.079 324.341 C 252.257 324.341,252.403 324.211,252.403 324.052 C 252.403 323.893,252.669 323.678,252.995 323.575 C 253.584 323.388,254.108 322.532,253.813 322.237 C 253.728 322.152,253.570 322.310,253.463 322.589 M174.489 323.325 C 175.040 323.393,176.016 323.394,176.660 323.327 C 177.303 323.260,176.853 323.204,175.659 323.203 C 174.465 323.201,173.939 323.256,174.489 323.325 M230.155 323.323 C 230.624 323.394,231.391 323.394,231.860 323.323 C 232.329 323.252,231.946 323.194,231.008 323.194 C 230.070 323.194,229.686 323.252,230.155 323.323 M249.147 326.360 C 248.465 326.954,248.151 327.356,248.450 327.253 C 248.748 327.150,248.992 326.941,248.992 326.789 C 248.992 326.636,249.138 326.512,249.315 326.512 C 249.493 326.512,249.938 326.233,250.304 325.891 C 251.455 324.820,250.449 325.227,249.147 326.360 M245.271 328.372 C 244.895 328.615,244.940 328.674,245.504 328.677 C 245.888 328.680,246.202 328.543,246.202 328.372 C 246.202 327.984,245.872 327.984,245.271 328.372 M202.016 329.302 L 161.395 329.461 202.326 329.532 C 228.349 329.577,243.425 329.493,243.721 329.302 C 244.082 329.069,244.012 329.018,243.411 329.073 C 242.984 329.112,224.357 329.215,202.016 329.302 " stroke="none" fill="#747474" fill-rule="evenodd"></path><path id="path4" d="M162.230 45.848 C 161.501 46.311,176.672 46.541,204.031 46.484 C 233.501 46.422,243.384 46.262,242.743 45.855 C 242.205 45.514,162.768 45.507,162.230 45.848 M159.070 46.512 C 159.070 46.682,158.916 46.822,158.729 46.822 C 158.132 46.822,156.151 47.861,155.352 48.594 C 154.927 48.984,154.753 49.302,154.964 49.302 C 155.176 49.302,155.349 49.140,155.349 48.941 C 155.349 48.742,155.433 48.663,155.537 48.767 C 155.640 48.870,156.010 48.689,156.359 48.364 C 156.708 48.039,157.112 47.847,157.256 47.936 C 157.401 48.025,157.519 47.950,157.519 47.769 C 157.519 47.588,158.147 47.272,158.915 47.066 C 160.354 46.681,160.784 46.202,159.690 46.202 C 159.349 46.202,159.070 46.341,159.070 46.512 M244.341 46.512 C 243.989 46.739,244.125 46.813,244.902 46.817 C 245.508 46.820,245.850 46.695,245.736 46.512 C 245.496 46.122,244.944 46.122,244.341 46.512 M248.372 48.080 C 248.372 48.261,248.211 48.309,248.014 48.187 C 247.791 48.049,247.740 48.103,247.880 48.329 C 248.004 48.529,248.220 48.621,248.361 48.534 C 248.502 48.447,248.694 48.576,248.788 48.821 C 248.882 49.066,249.230 49.246,249.562 49.221 C 249.924 49.194,250.102 49.012,250.007 48.766 C 249.887 48.454,249.748 48.441,249.421 48.712 C 249.079 48.996,248.992 48.935,248.992 48.410 C 248.992 48.048,248.853 47.752,248.682 47.752 C 248.512 47.752,248.372 47.900,248.372 48.080 M150.771 52.629 C 149.020 54.432,147.658 55.979,147.744 56.065 C 147.831 56.151,148.322 55.781,148.837 55.243 C 149.352 54.704,149.934 54.264,150.132 54.264 C 150.329 54.264,150.409 54.182,150.309 54.082 C 150.095 53.868,154.047 49.922,154.474 49.922 C 154.634 49.922,154.679 49.783,154.574 49.612 C 154.251 49.090,154.056 49.245,150.771 52.629 M250.543 49.628 C 250.543 49.810,250.382 49.860,250.185 49.738 C 249.961 49.600,249.911 49.653,250.051 49.880 C 250.174 50.079,250.389 50.172,250.529 50.086 C 250.882 49.868,251.519 50.697,251.238 51.008 C 251.111 51.148,251.189 51.158,251.410 51.030 C 251.666 50.882,252.190 51.197,252.847 51.895 C 253.416 52.498,253.955 52.918,254.045 52.828 C 254.135 52.739,253.816 52.292,253.338 51.837 C 251.406 49.996,250.543 49.314,250.543 49.628 M254.626 54.164 C 254.988 54.550,255.397 54.795,255.534 54.710 C 255.672 54.625,256.068 54.797,256.413 55.093 C 256.877 55.490,256.942 55.694,256.660 55.872 C 256.397 56.040,256.454 56.116,256.844 56.119 C 257.467 56.125,258.295 56.822,258.295 57.342 C 258.295 57.711,258.701 57.785,259.013 57.473 C 259.332 57.154,255.147 53.375,254.527 53.422 C 254.014 53.461,254.022 53.522,254.626 54.164 M146.202 57.239 C 145.690 57.812,145.062 58.287,144.806 58.293 C 144.393 58.303,144.393 58.337,144.806 58.605 C 145.218 58.871,145.217 58.906,144.798 58.910 C 144.537 58.913,144.098 59.179,143.821 59.502 C 143.544 59.825,143.113 60.209,142.862 60.355 C 142.612 60.501,142.302 60.957,142.174 61.369 C 141.985 61.977,142.214 61.849,143.391 60.688 C 146.705 57.421,147.580 56.461,147.362 56.332 C 147.235 56.257,146.713 56.665,146.202 57.239 M249.599 58.372 C 250.360 59.182,251.023 59.845,251.072 59.845 C 251.305 59.845,251.059 59.567,249.690 58.282 L 248.217 56.899 249.599 58.372 M259.225 57.984 C 259.225 58.155,259.364 58.295,259.535 58.295 C 259.705 58.295,259.845 58.504,259.845 58.760 C 259.845 59.016,260.019 59.190,260.233 59.147 C 260.446 59.105,260.585 59.244,260.543 59.457 C 260.500 59.671,260.674 59.845,260.930 59.845 C 261.186 59.845,261.395 59.993,261.395 60.173 C 261.395 60.354,261.533 60.417,261.702 60.312 C 261.870 60.208,261.462 59.572,260.796 58.899 C 259.546 57.637,259.225 57.450,259.225 57.984 M262.119 60.930 C 262.119 61.186,262.234 61.395,262.374 61.395 C 262.811 61.395,263.852 62.423,263.687 62.691 C 263.502 62.989,263.991 63.037,264.279 62.749 C 264.455 62.574,262.584 60.465,262.253 60.465 C 262.179 60.465,262.119 60.674,262.119 60.930 M140.837 62.388 C 140.150 63.075,140.381 63.738,141.085 63.101 C 141.722 62.524,141.897 62.016,141.457 62.016 C 141.321 62.016,141.042 62.183,140.837 62.388 M264.671 63.223 C 264.577 63.376,264.717 63.584,264.983 63.686 C 265.248 63.788,265.377 64.016,265.268 64.192 C 265.159 64.368,265.255 64.473,265.481 64.426 C 265.707 64.379,265.853 64.526,265.806 64.752 C 265.759 64.978,265.865 65.073,266.041 64.964 C 266.218 64.855,266.472 65.065,266.607 65.429 C 266.742 65.794,266.985 66.117,267.147 66.147 C 267.309 66.177,267.407 66.306,267.364 66.434 C 267.322 66.562,267.496 66.667,267.752 66.667 C 268.008 66.667,268.217 66.904,268.217 67.194 C 268.217 67.594,268.304 67.634,268.578 67.360 C 268.852 67.086,268.447 66.513,266.891 64.972 C 265.765 63.857,264.766 63.070,264.671 63.223 M137.321 66.049 C 136.019 67.393,135.023 68.563,135.109 68.649 C 135.275 68.815,140.155 64.084,140.155 63.757 C 140.155 63.268,139.516 63.785,137.321 66.049 M133.850 69.509 C 133.537 69.850,133.350 70.197,133.433 70.281 C 133.618 70.465,134.884 69.416,134.884 69.078 C 134.884 68.674,134.449 68.856,133.850 69.509 M270.491 69.289 C 270.491 69.537,270.599 69.674,270.730 69.592 C 270.862 69.511,271.107 69.690,271.276 69.991 C 271.444 70.292,271.672 70.447,271.782 70.337 C 271.984 70.135,271.032 68.837,270.680 68.837 C 270.576 68.837,270.491 69.040,270.491 69.289 M130.493 72.875 C 129.186 74.209,128.192 75.375,128.283 75.466 C 128.374 75.557,128.994 75.079,129.662 74.405 C 130.330 73.730,131.019 73.178,131.193 73.178 C 131.367 73.178,131.450 73.074,131.377 72.946 C 131.186 72.610,132.605 71.317,132.886 71.571 C 133.016 71.687,133.022 71.609,132.900 71.395 C 132.760 71.153,132.865 71.008,133.178 71.008 C 133.454 71.008,133.594 70.868,133.488 70.698 C 133.177 70.193,132.979 70.337,130.493 72.875 M273.662 72.178 C 273.348 72.491,273.481 72.870,273.876 72.791 C 274.089 72.748,274.229 72.888,274.186 73.101 C 274.143 73.314,274.246 73.488,274.415 73.488 C 274.892 73.488,275.956 74.499,275.780 74.784 C 275.693 74.924,275.828 75.039,276.080 75.039 C 276.332 75.039,276.593 75.206,276.662 75.411 C 276.732 75.623,276.861 75.656,276.961 75.489 C 277.160 75.154,273.928 71.912,273.662 72.178 M126.951 76.614 C 126.453 77.140,125.802 77.799,125.504 78.079 C 125.205 78.358,124.963 78.731,124.966 78.906 C 124.969 79.081,125.089 79.038,125.233 78.811 C 125.378 78.583,125.590 78.414,125.705 78.434 C 125.820 78.455,126.128 78.257,126.390 77.996 C 126.652 77.734,126.781 77.519,126.677 77.519 C 126.572 77.519,126.667 77.325,126.887 77.087 C 127.107 76.849,127.377 76.709,127.487 76.775 C 127.701 76.904,128.152 75.956,127.966 75.770 C 127.905 75.709,127.448 76.089,126.951 76.614 M277.209 76.255 C 277.209 76.683,277.356 76.824,277.674 76.701 C 277.930 76.603,278.140 76.677,278.140 76.866 C 278.140 77.055,278.279 77.209,278.450 77.209 C 278.979 77.209,278.774 76.769,277.975 76.187 C 277.230 75.645,277.209 75.647,277.209 76.255 M278.744 78.004 C 278.411 78.405,278.454 78.509,279.015 78.656 C 279.383 78.752,279.607 78.954,279.513 79.105 C 279.420 79.256,279.561 79.380,279.827 79.380 C 280.093 79.380,280.310 79.240,280.310 79.070 C 280.310 78.899,280.171 78.760,280.000 78.760 C 279.829 78.760,279.690 78.559,279.690 78.313 C 279.690 77.633,279.188 77.469,278.744 78.004 M123.920 80.318 C 123.649 80.778,123.513 81.239,123.618 81.345 C 123.724 81.450,123.580 81.624,123.300 81.731 C 122.698 81.962,122.629 82.661,123.178 82.977 C 123.391 83.100,123.466 83.090,123.344 82.955 C 123.222 82.820,123.287 82.414,123.488 82.052 C 123.688 81.691,123.823 81.291,123.787 81.163 C 123.751 81.035,123.860 80.930,124.031 80.930 C 124.202 80.930,124.341 80.771,124.341 80.577 C 124.341 80.382,124.569 80.057,124.847 79.853 C 125.278 79.539,125.283 79.483,124.884 79.483 C 124.625 79.483,124.192 79.859,123.920 80.318 M280.310 80.000 C 280.310 80.171,280.434 80.310,280.587 80.310 C 280.856 80.310,281.392 81.785,281.291 82.248 C 281.263 82.376,281.395 82.481,281.584 82.481 C 281.788 82.481,281.838 82.260,281.707 81.938 C 281.586 81.640,281.348 81.012,281.178 80.543 C 280.880 79.720,280.310 79.364,280.310 80.000 M122.189 84.566 C 121.778 86.045,121.774 86.602,122.176 86.353 C 122.349 86.246,122.409 86.027,122.310 85.866 C 122.210 85.705,122.336 85.158,122.590 84.650 C 122.843 84.142,122.930 83.652,122.782 83.561 C 122.635 83.470,122.368 83.922,122.189 84.566 M281.777 83.802 C 281.695 84.015,281.820 84.368,282.054 84.588 C 282.407 84.916,282.481 84.879,282.481 84.372 C 282.481 83.645,281.990 83.247,281.777 83.802 M282.708 98.322 C 282.758 107.041,282.682 110.964,282.471 110.543 C 282.218 110.036,282.195 110.092,282.345 110.850 C 282.447 111.360,282.648 111.850,282.792 111.939 C 282.936 112.028,283.100 112.657,283.155 113.337 C 283.211 114.017,283.208 108.713,283.151 101.550 C 283.093 94.388,282.953 87.842,282.841 87.004 C 282.728 86.166,282.668 91.259,282.708 98.322 M276.114 104.651 C 276.114 114.202,276.153 118.153,276.201 113.433 C 276.249 108.712,276.249 100.898,276.201 96.069 C 276.153 91.239,276.114 95.101,276.114 104.651 M121.429 88.863 C 121.100 89.719,121.221 288.483,121.550 288.992 C 121.818 289.406,121.852 289.406,121.857 288.992 C 121.991 278.891,121.952 88.372,121.816 88.372 C 121.706 88.372,121.532 88.593,121.429 88.863 M186.287 106.274 C 187.017 106.339,188.133 106.339,188.768 106.272 C 189.403 106.205,188.806 106.152,187.442 106.153 C 186.078 106.154,185.558 106.208,186.287 106.274 M211.395 106.265 C 211.779 106.339,212.407 106.339,212.791 106.265 C 213.174 106.191,212.860 106.131,212.093 106.131 C 211.326 106.131,211.012 106.191,211.395 106.265 M220.081 106.266 C 220.467 106.340,221.025 106.337,221.321 106.260 C 221.618 106.182,221.302 106.121,220.620 106.125 C 219.938 106.128,219.695 106.192,220.081 106.266 M186.899 106.893 C 186.260 106.959,185.736 107.145,185.736 107.306 C 185.736 107.466,185.527 107.597,185.271 107.597 C 185.016 107.597,184.806 107.806,184.806 108.062 C 184.806 108.645,185.304 108.672,185.524 108.101 C 185.614 107.866,186.152 107.563,186.720 107.426 C 188.059 107.104,218.915 106.913,218.915 107.226 C 218.915 107.566,220.700 107.659,220.904 107.330 C 221.269 106.738,191.973 106.362,186.899 106.893 M220.775 107.907 C 220.481 108.097,220.449 108.209,220.688 108.212 C 220.896 108.215,221.274 108.601,221.528 109.070 L 221.991 109.922 222.003 109.070 C 222.010 108.601,221.868 108.217,221.687 108.217 C 221.507 108.217,221.445 108.078,221.550 107.907 C 221.793 107.515,221.382 107.515,220.775 107.907 M184.186 109.819 C 184.186 110.302,184.310 110.698,184.461 110.698 C 184.612 110.698,184.794 110.302,184.865 109.819 C 184.950 109.238,184.857 108.941,184.590 108.941 C 184.353 108.941,184.186 109.304,184.186 109.819 M222.251 110.698 C 221.997 112.580,221.971 123.488,222.222 122.866 C 222.308 122.652,222.471 122.534,222.585 122.605 C 222.770 122.720,222.757 117.556,222.556 111.318 L 222.481 108.992 222.251 110.698 M183.566 116.991 C 183.342 125.605,183.556 151.592,183.862 152.868 C 184.011 153.488,184.127 144.981,184.133 133.023 C 184.142 112.585,183.876 105.064,183.566 116.991 M283.589 118.322 C 283.602 119.413,283.707 120.399,283.822 120.514 C 283.937 120.629,284.031 119.802,284.031 118.675 C 284.031 117.548,283.926 116.561,283.798 116.482 C 283.671 116.403,283.576 117.231,283.589 118.322 M283.147 122.576 C 283.122 123.055,282.984 123.376,282.842 123.288 C 282.700 123.200,282.584 123.555,282.584 124.077 L 282.584 125.027 283.016 124.202 C 283.254 123.748,283.391 123.000,283.321 122.541 L 283.194 121.705 283.147 122.576 M222.772 124.884 C 222.884 125.353,223.247 126.115,223.581 126.577 C 223.914 127.039,224.186 127.491,224.186 127.581 C 224.186 127.948,225.283 128.992,225.669 128.992 C 225.897 128.992,225.997 129.132,225.891 129.302 C 225.786 129.473,225.848 129.612,226.028 129.612 C 226.624 129.612,226.370 128.978,225.659 128.692 C 225.275 128.538,225.065 128.403,225.191 128.392 C 225.399 128.374,224.876 127.630,224.002 126.703 C 223.816 126.505,223.699 126.102,223.742 125.807 C 223.786 125.513,223.694 125.271,223.538 125.271 C 223.383 125.271,223.256 124.992,223.256 124.651 C 223.256 124.310,223.101 124.031,222.912 124.031 C 222.695 124.031,222.643 124.344,222.772 124.884 M234.791 125.502 C 236.274 125.559,238.786 125.559,240.372 125.503 C 241.958 125.446,240.744 125.400,237.674 125.399 C 234.605 125.399,233.307 125.445,234.791 125.502 M264.585 125.501 C 265.572 125.563,267.107 125.562,267.996 125.500 C 268.885 125.437,268.078 125.387,266.202 125.387 C 264.326 125.388,263.598 125.439,264.585 125.501 M281.860 125.988 C 281.860 126.212,281.447 126.701,280.941 127.075 C 280.369 127.498,280.088 127.931,280.199 128.219 C 280.311 128.511,280.193 128.682,279.878 128.682 C 279.604 128.682,279.380 128.887,279.380 129.138 C 279.380 129.827,280.064 129.407,280.930 128.187 C 281.357 127.586,281.880 126.904,282.093 126.670 C 282.559 126.160,282.600 125.581,282.171 125.581 C 282.000 125.581,281.860 125.764,281.860 125.988 M183.797 135.891 C 183.742 137.640,183.697 136.209,183.697 132.713 C 183.697 129.217,183.742 127.787,183.797 129.535 C 183.852 131.283,183.852 134.143,183.797 135.891 M226.481 129.971 C 226.331 130.215,226.466 130.276,226.905 130.161 C 227.343 130.047,227.502 130.118,227.401 130.382 C 227.318 130.600,227.561 130.852,227.953 130.955 C 228.956 131.217,229.039 130.963,228.183 130.251 C 227.334 129.544,226.800 129.456,226.481 129.971 M276.898 130.389 C 276.674 130.659,276.296 130.806,276.058 130.715 C 275.821 130.624,275.712 130.688,275.816 130.856 C 276.054 131.242,276.911 131.244,277.517 130.861 C 277.849 130.651,277.885 130.474,277.643 130.232 C 277.402 129.991,277.192 130.035,276.898 130.389 M229.147 130.672 C 229.147 131.627,231.405 132.190,231.740 131.318 C 231.937 130.805,231.776 130.774,230.853 131.148 C 230.438 131.316,230.053 131.241,229.690 130.923 C 229.391 130.661,229.147 130.548,229.147 130.672 M273.798 131.372 C 273.798 131.622,274.162 131.783,274.729 131.783 C 275.240 131.783,275.659 131.659,275.659 131.508 C 275.659 131.357,275.240 131.172,274.729 131.097 C 274.094 131.003,273.798 131.091,273.798 131.372 M243.023 132.015 C 248.182 132.063,256.624 132.063,261.783 132.015 C 266.942 131.968,262.721 131.929,252.403 131.929 C 242.085 131.929,237.864 131.968,243.023 132.015 M176.853 151.318 C 176.853 152.767,176.906 153.360,176.971 152.636 C 177.037 151.911,177.037 150.725,176.971 150.000 C 176.906 149.275,176.853 149.868,176.853 151.318 M183.349 154.729 C 183.349 155.667,183.407 156.050,183.478 155.581 C 183.549 155.112,183.549 154.345,183.478 153.876 C 183.407 153.407,183.349 153.791,183.349 154.729 M184.186 154.751 C 184.186 156.464,186.085 156.577,214.884 156.588 C 229.124 156.593,241.302 156.721,241.947 156.873 C 243.624 157.267,246.010 156.941,244.943 156.463 C 244.418 156.228,235.338 156.098,215.271 156.037 C 196.849 155.982,186.357 155.841,186.357 155.650 C 186.357 155.484,186.008 155.349,185.581 155.349 C 185.099 155.349,184.806 155.173,184.806 154.884 C 184.806 154.628,184.667 154.419,184.496 154.419 C 184.326 154.419,184.186 154.568,184.186 154.751 M246.202 157.191 C 246.202 157.719,246.663 157.782,247.272 157.337 C 247.842 156.920,247.830 156.899,247.036 156.899 C 246.577 156.899,246.202 157.031,246.202 157.191 M247.615 157.801 C 247.519 157.955,247.742 158.003,248.110 157.907 C 248.494 157.806,248.702 157.857,248.597 158.026 C 248.497 158.188,248.707 158.343,249.063 158.370 C 249.420 158.397,249.813 158.583,249.937 158.784 C 250.062 158.985,250.332 159.045,250.537 158.918 C 250.777 158.770,250.442 158.476,249.608 158.103 C 248.135 157.443,247.861 157.402,247.615 157.801 M250.853 159.469 C 250.853 159.688,251.142 159.890,251.496 159.917 C 252.024 159.956,252.073 159.884,251.768 159.517 C 251.308 158.962,250.853 158.938,250.853 159.469 M252.403 160.272 C 252.403 160.464,252.543 160.620,252.713 160.620 C 252.884 160.620,253.023 160.768,253.023 160.949 C 253.023 161.129,252.849 161.172,252.636 161.044 C 252.372 160.886,252.384 160.979,252.674 161.336 C 253.152 161.926,253.485 162.047,253.153 161.510 C 253.021 161.296,253.104 161.221,253.368 161.316 C 253.605 161.402,253.752 161.665,253.695 161.899 C 253.638 162.134,253.698 162.220,253.827 162.090 C 254.147 161.771,255.535 163.110,255.291 163.504 C 255.181 163.682,255.253 163.721,255.458 163.594 C 255.660 163.470,255.900 163.584,256.004 163.855 C 256.106 164.120,256.316 164.259,256.472 164.163 C 256.628 164.066,256.011 163.265,255.102 162.381 C 252.866 160.210,252.403 159.848,252.403 160.272 M256.848 164.793 C 256.848 165.041,256.939 165.188,257.051 165.119 C 257.297 164.966,258.295 166.086,258.295 166.515 C 258.295 166.684,258.469 166.787,258.682 166.744 C 258.895 166.702,259.031 166.851,258.985 167.077 C 258.938 167.303,259.044 167.399,259.220 167.290 C 259.396 167.181,259.660 167.415,259.806 167.810 C 259.952 168.204,260.195 168.527,260.346 168.527 C 260.497 168.527,260.585 168.632,260.543 168.760 C 260.500 168.888,260.603 168.992,260.772 168.992 C 261.289 168.992,262.305 170.015,262.107 170.336 C 262.004 170.502,262.072 170.544,262.259 170.429 C 262.445 170.314,262.735 170.465,262.903 170.766 C 263.072 171.067,263.309 171.213,263.430 171.092 C 263.551 170.971,262.794 170.033,261.748 169.009 C 260.701 167.985,259.845 166.981,259.845 166.778 C 259.845 166.575,259.766 166.487,259.669 166.584 C 259.448 166.805,257.674 165.096,257.674 164.662 C 257.674 164.485,257.488 164.341,257.261 164.341 C 257.034 164.341,256.848 164.544,256.848 164.793 M263.767 171.375 C 263.491 171.651,263.513 172.111,263.798 172.016 C 263.926 171.973,264.056 172.072,264.086 172.236 C 264.116 172.400,264.395 172.623,264.706 172.732 C 265.017 172.841,265.271 173.126,265.271 173.365 C 265.271 173.603,265.481 173.805,265.736 173.813 C 265.992 173.820,266.172 173.978,266.136 174.163 C 266.100 174.348,266.351 174.753,266.692 175.062 C 267.294 175.607,267.307 175.605,267.120 175.021 C 266.929 174.427,266.933 174.427,267.413 175.016 C 267.681 175.345,267.964 175.550,268.042 175.472 C 268.121 175.394,267.236 174.395,266.076 173.252 C 264.917 172.109,263.878 171.264,263.767 171.375 M269.147 176.688 C 269.147 176.843,269.515 177.338,269.965 177.787 C 270.414 178.237,270.676 178.605,270.547 178.605 C 270.418 178.605,270.484 178.812,270.695 179.066 C 270.906 179.320,271.192 179.458,271.332 179.371 C 271.594 179.209,272.080 179.791,272.088 180.276 C 272.091 180.428,272.369 180.707,272.706 180.896 C 273.830 181.527,276.033 183.831,275.829 184.162 C 275.702 184.368,275.825 184.413,276.162 184.284 C 276.561 184.130,276.650 184.201,276.510 184.564 C 276.396 184.862,276.634 185.333,277.127 185.781 C 277.568 186.183,277.829 186.337,277.706 186.124 C 277.583 185.911,277.619 185.736,277.785 185.736 C 277.952 185.736,278.150 185.911,278.226 186.124 C 278.302 186.337,278.447 186.437,278.547 186.346 C 278.841 186.079,273.226 180.399,272.880 180.613 C 272.707 180.720,272.636 180.623,272.723 180.397 C 272.812 180.165,272.065 179.203,271.014 178.196 C 269.987 177.212,269.147 176.533,269.147 176.688 M278.618 187.265 C 278.520 187.424,278.581 187.642,278.755 187.749 C 278.928 187.856,279.079 187.761,279.091 187.538 C 279.102 187.314,279.263 187.446,279.448 187.829 C 279.743 188.440,280.310 188.800,280.310 188.376 C 280.310 187.680,278.924 186.770,278.618 187.265 M280.310 189.129 C 280.310 189.310,280.466 189.457,280.656 189.457 C 280.850 189.457,280.931 189.731,280.840 190.078 C 280.737 190.473,280.799 190.623,281.012 190.492 C 281.220 190.364,281.275 190.471,281.158 190.776 C 281.049 191.058,281.158 191.339,281.415 191.437 C 281.987 191.657,281.977 191.337,281.376 190.131 C 280.862 189.101,280.310 188.582,280.310 189.129 M282.017 192.556 C 281.912 192.725,281.970 193.109,282.144 193.408 C 282.417 193.876,282.463 193.832,282.471 193.101 C 282.481 192.209,282.338 192.037,282.017 192.556 M282.636 242.326 C 282.636 268.760,282.728 289.690,282.841 288.837 C 283.109 286.812,283.109 197.839,282.841 195.814 C 282.728 194.961,282.636 215.891,282.636 242.326 M276.102 204.496 C 276.102 208.419,276.147 209.980,276.201 207.967 C 276.255 205.954,276.255 202.744,276.200 200.835 C 276.146 198.926,276.102 200.574,276.102 204.496 M222.562 210.142 C 222.947 210.216,223.506 210.213,223.802 210.136 C 224.099 210.058,223.783 209.997,223.101 210.001 C 222.419 210.004,222.176 210.068,222.562 210.142 M176.893 243.566 C 176.893 259.767,176.931 266.441,176.977 258.396 C 177.023 250.350,177.023 237.095,176.977 228.938 C 176.931 220.782,176.893 227.364,176.893 243.566 M187.597 216.112 C 189.464 216.289,189.521 216.316,188.372 216.472 C 187.690 216.564,194.457 216.649,203.411 216.661 C 212.364 216.673,219.341 216.576,218.915 216.446 C 218.215 216.233,218.261 216.196,219.380 216.064 C 220.062 215.984,212.736 215.919,203.101 215.920 C 193.465 215.920,186.488 216.007,187.597 216.112 M184.629 217.149 C 183.578 218.354,183.336 225.627,183.510 250.853 C 183.636 269.116,183.822 270.388,186.357 270.388 C 187.592 270.388,187.554 269.833,186.310 269.710 C 185.726 269.651,185.197 269.363,184.993 268.992 C 184.805 268.651,184.546 268.294,184.417 268.198 C 184.035 267.913,184.095 219.100,184.479 218.972 C 184.659 218.912,184.806 218.526,184.806 218.114 C 184.806 217.485,184.958 217.364,185.755 217.364 C 186.308 217.364,186.623 217.235,186.512 217.054 C 186.247 216.625,185.032 216.686,184.629 217.149 M219.658 217.106 C 219.570 217.248,219.789 217.364,220.143 217.364 C 220.531 217.364,220.930 217.674,221.142 218.140 C 221.552 219.041,222.016 219.159,222.016 218.363 C 222.016 217.340,220.134 216.336,219.658 217.106 M222.212 220.388 C 221.954 222.599,222.066 264.548,222.333 265.933 C 222.460 266.592,222.580 256.283,222.600 243.023 C 222.620 229.764,222.579 218.915,222.510 218.915 C 222.440 218.915,222.307 219.578,222.212 220.388 M183.796 246.124 C 183.736 247.275,183.687 246.333,183.687 244.031 C 183.687 241.729,183.736 240.787,183.796 241.938 C 183.855 243.089,183.855 244.973,183.796 246.124 M183.352 268.682 C 183.354 269.705,183.412 270.087,183.481 269.529 C 183.550 268.972,183.548 268.135,183.477 267.669 C 183.407 267.203,183.350 267.659,183.352 268.682 M221.431 268.446 C 221.201 268.998,220.890 269.373,220.739 269.280 C 220.588 269.187,220.465 269.258,220.465 269.439 C 220.465 269.620,220.116 269.767,219.690 269.767 C 219.264 269.767,218.915 269.907,218.915 270.078 C 218.915 270.248,219.264 270.388,219.690 270.388 C 220.116 270.388,220.465 270.248,220.465 270.078 C 220.465 269.907,220.670 269.767,220.919 269.767 C 221.474 269.767,222.093 268.689,221.952 267.968 C 221.880 267.602,221.721 267.748,221.431 268.446 M187.442 270.698 L 184.031 270.885 187.519 270.946 C 189.679 270.984,191.008 270.890,191.008 270.698 C 191.008 270.527,190.973 270.415,190.930 270.449 C 190.888 270.483,189.318 270.595,187.442 270.698 M203.962 277.127 C 204.691 277.192,205.807 277.191,206.442 277.125 C 207.077 277.058,206.481 277.004,205.116 277.006 C 203.752 277.007,203.232 277.061,203.962 277.127 M217.752 277.125 C 218.391 277.192,219.438 277.192,220.078 277.125 C 220.717 277.058,220.194 277.003,218.915 277.003 C 217.636 277.003,217.112 277.058,217.752 277.125 M276.090 284.341 C 276.090 286.643,276.139 287.585,276.199 286.434 C 276.259 285.283,276.259 283.399,276.199 282.248 C 276.139 281.097,276.090 282.039,276.090 284.341 M282.181 291.142 C 281.788 291.878,281.769 292.403,282.135 292.403 C 282.287 292.403,282.472 291.984,282.547 291.473 C 282.706 290.389,282.624 290.315,282.181 291.142 M121.860 291.550 C 121.860 291.954,122.081 292.555,122.351 292.886 C 122.834 293.480,122.838 293.480,122.620 292.868 C 122.498 292.527,122.408 292.007,122.419 291.712 C 122.431 291.416,122.311 291.094,122.151 290.996 C 121.991 290.897,121.860 291.147,121.860 291.550 M122.714 294.315 C 122.796 294.628,123.043 294.884,123.263 294.884 C 123.498 294.884,123.602 294.649,123.514 294.315 C 123.432 294.003,123.186 293.747,122.966 293.747 C 122.730 293.747,122.627 293.981,122.714 294.315 M280.260 295.358 C 280.202 295.865,279.992 296.279,279.793 296.279 C 279.594 296.279,279.315 296.406,279.173 296.561 C 279.023 296.725,279.077 296.750,279.302 296.621 C 279.516 296.498,279.690 296.545,279.690 296.726 C 279.690 296.906,279.446 297.065,279.147 297.079 C 278.828 297.093,278.763 297.167,278.989 297.259 C 279.285 297.378,279.272 297.517,278.934 297.854 C 278.429 298.360,278.010 298.445,278.295 297.984 C 278.607 297.480,278.251 297.631,277.790 298.199 C 277.542 298.505,277.518 298.631,277.733 298.503 C 277.941 298.378,278.241 298.521,278.421 298.831 C 278.597 299.133,278.745 299.206,278.750 298.993 C 278.755 298.780,279.258 297.913,279.866 297.066 C 280.725 295.870,280.905 295.403,280.669 294.981 C 280.410 294.519,280.349 294.575,280.260 295.358 M123.411 295.504 C 123.411 295.908,124.425 296.871,124.987 297.001 C 125.229 297.056,125.017 296.673,124.516 296.148 C 123.521 295.106,123.411 295.042,123.411 295.504 M125.219 297.884 C 125.709 298.793,127.814 300.773,128.102 300.596 C 128.247 300.506,128.273 300.674,128.160 300.968 C 128.001 301.383,128.075 301.457,128.489 301.298 C 128.829 301.167,128.950 301.213,128.820 301.423 C 128.562 301.840,129.822 303.044,130.244 302.783 C 130.417 302.677,130.521 302.705,130.475 302.845 C 130.351 303.228,131.342 304.524,131.578 304.287 C 131.691 304.175,131.783 304.300,131.783 304.566 C 131.783 305.059,132.516 305.520,132.819 305.217 C 133.031 305.005,127.248 299.149,126.956 299.281 C 126.836 299.336,126.625 299.075,126.487 298.702 C 126.349 298.330,125.939 297.866,125.575 297.671 C 124.986 297.356,124.947 297.378,125.219 297.884 M275.584 301.143 C 275.720 301.664,275.649 301.768,275.259 301.618 C 274.891 301.477,274.811 301.559,274.953 301.930 C 275.095 302.298,275.015 302.383,274.657 302.245 C 274.151 302.051,273.027 303.001,273.364 303.338 C 273.467 303.441,273.258 303.839,272.899 304.224 C 272.541 304.609,272.248 304.749,272.248 304.536 C 272.248 304.324,272.094 304.245,271.905 304.362 C 271.659 304.513,271.657 304.633,271.898 304.782 C 272.116 304.916,272.012 305.180,271.607 305.527 C 271.261 305.823,270.862 305.993,270.718 305.904 C 270.575 305.816,270.268 305.986,270.035 306.282 C 269.653 306.770,269.664 306.781,270.155 306.396 C 270.453 306.162,270.698 306.096,270.698 306.250 C 270.698 306.670,269.467 307.639,269.168 307.455 C 269.025 307.366,268.717 307.536,268.485 307.833 C 268.102 308.321,268.114 308.332,268.605 307.947 C 268.933 307.689,269.147 307.652,269.147 307.854 C 269.147 308.037,268.904 308.322,268.607 308.488 C 268.310 308.655,268.158 308.881,268.268 308.992 C 268.379 309.103,270.292 307.371,272.518 305.144 C 276.096 301.567,276.500 301.059,275.989 300.786 C 275.491 300.519,275.434 300.570,275.584 301.143 M132.836 305.789 C 132.684 306.035,132.783 306.086,133.144 305.948 C 133.481 305.818,133.601 305.865,133.471 306.075 C 133.268 306.404,134.526 307.502,134.950 307.366 C 135.072 307.326,135.083 307.526,134.974 307.809 C 134.825 308.198,134.903 308.276,135.291 308.127 C 135.575 308.018,135.779 308.029,135.744 308.151 C 135.602 308.659,136.570 309.697,137.032 309.532 C 137.300 309.437,137.413 309.475,137.284 309.618 C 136.972 309.961,138.295 311.354,138.698 311.105 C 138.872 310.998,138.916 311.066,138.796 311.259 C 138.556 311.647,139.785 313.032,140.094 312.722 C 140.203 312.613,140.087 312.395,139.836 312.236 C 139.585 312.077,139.509 311.945,139.666 311.943 C 139.824 311.940,139.629 311.593,139.234 311.172 C 138.838 310.751,138.395 310.480,138.250 310.570 C 138.104 310.661,137.984 310.564,137.984 310.357 C 137.984 309.958,133.664 305.426,133.283 305.426 C 133.160 305.426,132.959 305.590,132.836 305.789 M265.572 310.683 C 265.694 310.880,265.511 311.285,265.167 311.584 C 264.780 311.920,264.634 312.279,264.785 312.524 C 264.963 312.811,265.077 312.743,265.199 312.275 C 265.292 311.920,265.690 311.510,266.083 311.365 L 266.799 311.100 266.075 310.713 C 265.570 310.443,265.418 310.434,265.572 310.683 M140.336 312.827 C 140.075 313.249,141.990 315.087,142.429 314.836 C 142.628 314.722,142.687 314.743,142.561 314.883 C 142.271 315.203,142.922 316.020,143.287 315.794 C 143.437 315.702,143.466 315.867,143.353 316.162 C 143.198 316.567,143.270 316.650,143.651 316.504 C 144.006 316.368,144.103 316.444,143.982 316.760 C 143.830 317.156,144.186 317.352,144.873 317.250 C 144.994 317.232,145.021 317.406,144.932 317.638 C 144.773 318.054,145.671 318.618,145.988 318.301 C 146.220 318.070,142.228 314.132,141.942 314.309 C 141.812 314.389,141.705 314.329,141.705 314.174 C 141.705 313.676,140.527 312.517,140.336 312.827 M262.812 313.143 C 262.719 313.294,262.832 313.575,263.063 313.767 C 263.535 314.159,264.478 313.353,264.033 312.938 C 263.900 312.814,263.729 312.888,263.653 313.101 C 263.577 313.314,263.378 313.488,263.212 313.488 C 263.045 313.488,262.995 313.349,263.101 313.178 C 263.206 313.008,263.223 312.868,263.137 312.868 C 263.052 312.868,262.906 312.992,262.812 313.143 M261.802 314.862 C 261.301 315.432,261.669 315.739,262.207 315.201 C 262.443 314.966,262.636 314.693,262.636 314.596 C 262.636 314.284,262.182 314.429,261.802 314.862 M258.730 317.263 C 258.405 317.633,258.314 317.834,258.527 317.709 C 259.052 317.403,259.018 317.770,258.472 318.317 C 257.926 318.863,257.558 318.896,257.864 318.372 C 257.989 318.159,257.788 318.250,257.418 318.575 C 256.720 319.187,256.511 319.560,257.054 319.225 C 257.225 319.119,257.364 319.187,257.364 319.374 C 257.364 319.562,257.747 319.361,258.214 318.927 C 258.681 318.494,259.142 318.140,259.237 318.140 C 259.333 318.140,259.411 317.791,259.411 317.364 C 259.411 316.430,259.455 316.436,258.730 317.263 M146.127 318.671 C 145.833 318.777,145.846 318.913,146.182 319.250 C 146.742 319.809,146.977 319.807,146.977 319.243 C 146.977 318.705,146.649 318.484,146.127 318.671 M147.170 319.628 C 146.981 319.934,147.956 321.240,148.372 321.240 C 148.697 321.240,148.505 320.662,147.956 319.984 C 147.579 319.518,147.313 319.397,147.170 319.628 M148.734 321.137 C 148.365 321.505,148.515 321.931,148.954 321.763 C 149.218 321.662,149.365 321.797,149.341 322.118 C 149.318 322.424,149.514 322.620,149.820 322.597 C 150.168 322.571,150.278 322.716,150.154 323.038 C 150.017 323.395,150.107 323.466,150.505 323.313 C 150.799 323.200,150.967 323.226,150.878 323.369 C 150.623 323.783,152.151 325.058,152.583 324.791 C 152.807 324.652,152.885 324.684,152.772 324.867 C 152.468 325.358,154.106 326.639,154.515 326.229 C 154.759 325.986,154.741 325.891,154.453 325.891 C 154.233 325.891,153.821 325.635,153.538 325.321 C 152.106 323.736,148.914 320.956,148.734 321.137 M255.111 321.550 C 254.819 321.891,254.687 322.171,254.818 322.171 C 254.949 322.171,255.295 321.891,255.587 321.550 C 255.879 321.209,256.011 320.930,255.880 320.930 C 255.749 320.930,255.403 321.209,255.111 321.550 M253.875 322.334 C 253.668 323.416,253.689 323.468,254.136 322.981 C 254.322 322.779,254.379 322.344,254.263 322.013 C 254.085 321.505,254.025 321.555,253.875 322.334 M178.062 323.315 C 178.360 323.393,178.849 323.393,179.147 323.315 C 179.446 323.237,179.202 323.173,178.605 323.173 C 178.008 323.173,177.764 323.237,178.062 323.315 M251.931 323.728 C 251.374 324.344,251.739 325.418,252.311 324.846 C 252.437 324.720,252.355 324.503,252.128 324.363 C 251.867 324.202,251.833 324.037,252.033 323.913 C 252.208 323.805,252.413 323.892,252.489 324.107 C 252.570 324.333,252.743 324.381,252.903 324.221 C 253.063 324.061,253.015 323.888,252.789 323.807 C 252.575 323.731,252.478 323.540,252.575 323.384 C 252.883 322.885,252.518 323.080,251.931 323.728 M250.620 325.349 C 250.663 325.562,250.463 325.738,250.177 325.740 C 249.891 325.743,249.542 325.870,249.402 326.023 C 249.254 326.184,249.327 326.197,249.575 326.053 C 249.869 325.882,249.954 325.940,249.846 326.236 C 249.760 326.473,249.533 326.632,249.341 326.589 C 249.149 326.547,248.992 326.657,248.992 326.835 C 248.992 327.013,248.753 327.118,248.461 327.068 C 248.155 327.015,247.882 327.207,247.818 327.519 C 247.757 327.818,247.856 328.062,248.039 328.062 C 248.222 328.062,248.372 327.922,248.372 327.752 C 248.372 327.581,248.547 327.439,248.760 327.436 C 249.187 327.429,251.473 325.529,251.473 325.180 C 251.473 325.060,251.264 324.961,251.008 324.961 C 250.752 324.961,250.578 325.136,250.620 325.349 M154.729 326.772 C 154.729 327.070,156.234 327.873,156.835 327.897 C 157.055 327.905,157.337 328.077,157.461 328.278 C 157.586 328.480,158.033 328.708,158.456 328.786 C 158.879 328.865,159.583 329.093,160.020 329.294 C 160.582 329.552,161.129 329.570,161.881 329.354 L 162.946 329.048 161.842 329.020 C 161.235 329.005,159.883 328.657,158.839 328.248 C 157.795 327.839,156.884 327.561,156.815 327.630 C 156.745 327.699,156.435 327.476,156.126 327.134 C 155.558 326.506,154.729 326.291,154.729 326.772 M246.202 328.227 C 246.202 328.728,246.686 328.842,246.957 328.405 C 247.051 328.252,246.920 328.047,246.665 327.949 C 246.383 327.841,246.202 327.950,246.202 328.227 M244.031 328.682 C 243.775 328.847,243.705 328.987,243.876 328.992 C 244.047 328.997,243.977 329.137,243.721 329.302 C 243.358 329.537,243.444 329.604,244.109 329.608 C 244.578 329.610,244.961 329.473,244.961 329.302 C 244.961 329.132,245.205 328.982,245.504 328.970 C 245.968 328.952,245.957 328.910,245.426 328.682 C 244.610 328.332,244.574 328.332,244.031 328.682 M163.253 329.927 C 163.129 330.127,176.685 330.233,202.481 330.233 C 228.873 330.233,241.833 330.129,241.704 329.920 C 241.440 329.494,163.517 329.501,163.253 329.927 " stroke="none" fill="#7c7478" fill-rule="evenodd"></path></g></svg>